<svg xmlns="http://www.w3.org/2000/svg" xmlns:xlink="http://www.w3.org/1999/xlink" width="500" zoomAndPan="magnify" viewBox="0 0 375 374.999991" height="500" preserveAspectRatio="xMidYMid meet" version="1.0"><defs><clipPath id="624e22f71c"><path d="M 0 39.609375 L 375 39.609375 L 375 280 L 0 280 Z M 0 39.609375 " clip-rule="nonzero"/></clipPath><clipPath id="6aa29fed74"><path d="M 130 252 L 195 252 L 195 335.109375 L 130 335.109375 Z M 130 252 " clip-rule="nonzero"/></clipPath><clipPath id="6e29b96a87"><path d="M 183 252 L 247 252 L 247 335.109375 L 183 335.109375 Z M 183 252 " clip-rule="nonzero"/></clipPath></defs><g clip-path="url(#624e22f71c)"><path fill="#ffbd52" d="M 0.117188 39.601562 L 374.90625 39.601562 L 374.90625 279.21875 L 0.117188 279.21875 Z M 0.117188 39.601562 " fill-opacity="1" fill-rule="nonzero"/></g><path fill="#ffffff" d="M 354.449219 88.855469 L 354.449219 230.277344 C 338.691406 230.277344 325.917969 243.039062 325.917969 258.78125 L 49.421875 258.78125 C 49.421875 243.039062 36.644531 230.277344 20.890625 230.277344 C 20.785156 230.277344 20.679688 230.277344 20.574219 230.28125 L 20.574219 88.851562 C 20.679688 88.855469 20.785156 88.855469 20.890625 88.855469 C 36.644531 88.855469 49.421875 76.09375 49.421875 60.351562 C 49.421875 60.246094 49.421875 60.140625 49.417969 60.035156 L 325.921875 60.035156 C 325.921875 60.140625 325.921875 60.246094 325.921875 60.351562 C 325.921875 76.09375 338.691406 88.855469 354.449219 88.855469 Z M 354.449219 88.855469 " fill-opacity="1" fill-rule="nonzero"/><g clip-path="url(#6aa29fed74)"><path fill="#ff4d4d" d="M 154.90625 252.070312 L 130.996094 316.855469 L 160.699219 303.03125 L 172.292969 335.09375 L 194.816406 269.066406 Z M 154.90625 252.070312 " fill-opacity="1" fill-rule="nonzero"/></g><g clip-path="url(#6e29b96a87)"><path fill="#ff4d4d" d="M 223.074219 252.070312 L 246.980469 316.855469 L 217.28125 303.03125 L 205.6875 335.09375 L 183.160156 269.066406 Z M 223.074219 252.070312 " fill-opacity="1" fill-rule="nonzero"/></g><path fill="#ffbd52" d="M 232.050781 234.566406 C 232.050781 239.949219 225.355469 243.964844 223.410156 248.652344 C 221.394531 253.503906 223.210938 261.058594 219.550781 264.71875 C 215.886719 268.375 208.328125 266.5625 203.46875 268.574219 C 198.78125 270.515625 194.757812 277.207031 189.371094 277.207031 C 183.980469 277.207031 179.960938 270.515625 175.269531 268.574219 C 170.410156 266.558594 162.851562 268.375 159.1875 264.71875 C 155.527344 261.058594 157.339844 253.503906 155.328125 248.652344 C 153.382812 243.96875 146.6875 239.949219 146.6875 234.566406 C 146.6875 229.179688 153.382812 225.164062 155.328125 220.480469 C 157.34375 215.625 155.527344 208.070312 159.1875 204.414062 C 162.851562 200.753906 170.410156 202.566406 175.269531 200.554688 C 179.957031 198.613281 183.980469 191.925781 189.371094 191.925781 C 194.757812 191.925781 198.78125 198.613281 203.46875 200.554688 C 208.328125 202.570312 215.886719 200.753906 219.550781 204.414062 C 223.210938 208.070312 221.398438 215.625 223.410156 220.480469 C 225.359375 225.164062 232.050781 229.179688 232.050781 234.566406 Z M 232.050781 234.566406 " fill-opacity="1" fill-rule="nonzero"/><path fill="#f7a334" d="M 208.105469 215.84375 C 208.71875 216.457031 209.300781 217.097656 209.851562 217.769531 C 210.402344 218.441406 210.917969 219.136719 211.402344 219.855469 C 211.882812 220.578125 212.328125 221.320312 212.738281 222.085938 C 213.148438 222.847656 213.515625 223.632812 213.851562 224.433594 C 214.183594 225.234375 214.472656 226.050781 214.726562 226.878906 C 214.976562 227.710938 215.1875 228.550781 215.359375 229.398438 C 215.527344 230.25 215.652344 231.105469 215.738281 231.96875 C 215.824219 232.832031 215.867188 233.699219 215.867188 234.566406 C 215.867188 235.433594 215.824219 236.296875 215.738281 237.160156 C 215.65625 238.023438 215.527344 238.878906 215.359375 239.730469 C 215.1875 240.578125 214.976562 241.417969 214.726562 242.25 C 214.472656 243.078125 214.183594 243.894531 213.851562 244.695312 C 213.519531 245.496094 213.148438 246.28125 212.738281 247.042969 C 212.328125 247.808594 211.882812 248.550781 211.402344 249.273438 C 210.917969 249.992188 210.402344 250.6875 209.851562 251.359375 C 209.300781 252.03125 208.71875 252.671875 208.105469 253.285156 C 207.492188 253.898438 206.851562 254.480469 206.179688 255.03125 C 205.507812 255.578125 204.8125 256.09375 204.089844 256.578125 C 203.367188 257.058594 202.625 257.503906 201.859375 257.914062 C 201.09375 258.320312 200.3125 258.691406 199.507812 259.023438 C 198.707031 259.355469 197.890625 259.648438 197.0625 259.898438 C 196.230469 260.152344 195.390625 260.359375 194.539062 260.53125 C 193.6875 260.699219 192.828125 260.828125 191.964844 260.910156 C 191.101562 260.996094 190.234375 261.039062 189.367188 261.039062 C 188.5 261.039062 187.632812 260.996094 186.769531 260.910156 C 185.90625 260.828125 185.050781 260.699219 184.199219 260.53125 C 183.347656 260.359375 182.507812 260.152344 181.675781 259.898438 C 180.84375 259.648438 180.03125 259.355469 179.226562 259.023438 C 178.425781 258.691406 177.640625 258.320312 176.875 257.914062 C 176.109375 257.503906 175.367188 257.058594 174.644531 256.578125 C 173.925781 256.097656 173.226562 255.578125 172.558594 255.03125 C 171.886719 254.480469 171.246094 253.898438 170.628906 253.285156 C 170.015625 252.671875 169.433594 252.03125 168.882812 251.359375 C 168.332031 250.691406 167.816406 249.996094 167.335938 249.273438 C 166.851562 248.550781 166.40625 247.808594 165.996094 247.046875 C 165.589844 246.28125 165.21875 245.496094 164.886719 244.695312 C 164.554688 243.894531 164.261719 243.082031 164.011719 242.25 C 163.757812 241.421875 163.546875 240.582031 163.378906 239.730469 C 163.207031 238.878906 163.082031 238.023438 162.996094 237.160156 C 162.910156 236.296875 162.867188 235.433594 162.867188 234.566406 C 162.867188 233.699219 162.910156 232.832031 162.996094 231.96875 C 163.082031 231.109375 163.207031 230.25 163.378906 229.402344 C 163.546875 228.550781 163.757812 227.710938 164.007812 226.878906 C 164.261719 226.050781 164.554688 225.234375 164.886719 224.433594 C 165.21875 223.632812 165.589844 222.851562 165.996094 222.085938 C 166.40625 221.320312 166.851562 220.578125 167.335938 219.855469 C 167.816406 219.136719 168.332031 218.441406 168.882812 217.769531 C 169.433594 217.101562 170.015625 216.457031 170.628906 215.84375 C 171.242188 215.230469 171.886719 214.652344 172.558594 214.101562 C 173.226562 213.550781 173.921875 213.035156 174.644531 212.554688 C 175.367188 212.070312 176.109375 211.625 176.875 211.21875 C 177.640625 210.808594 178.425781 210.4375 179.226562 210.105469 C 180.027344 209.773438 180.84375 209.484375 181.675781 209.230469 C 182.503906 208.980469 183.347656 208.769531 184.199219 208.601562 C 185.050781 208.429688 185.90625 208.304688 186.769531 208.21875 C 187.632812 208.132812 188.5 208.089844 189.367188 208.089844 C 190.234375 208.089844 191.101562 208.132812 191.964844 208.21875 C 192.828125 208.304688 193.6875 208.429688 194.539062 208.601562 C 195.386719 208.769531 196.230469 208.980469 197.058594 209.230469 C 197.890625 209.484375 198.707031 209.773438 199.507812 210.105469 C 200.308594 210.4375 201.09375 210.808594 201.859375 211.21875 C 202.625 211.625 203.367188 212.070312 204.089844 212.550781 C 204.8125 213.035156 205.507812 213.550781 206.179688 214.101562 C 206.847656 214.648438 207.492188 215.230469 208.105469 215.84375 Z M 208.105469 215.84375 " fill-opacity="1" fill-rule="nonzero"/><path fill="#004966" d="M 93.011719 124.160156 C 93.363281 124.949219 93.378906 125.71875 93.050781 126.464844 C 92.726562 127.214844 92.207031 127.902344 91.5 128.527344 C 90.789062 129.152344 89.980469 129.699219 89.066406 130.160156 C 88.15625 130.625 87.289062 130.949219 86.472656 131.140625 C 85.574219 131.332031 84.628906 131.417969 83.632812 131.40625 C 82.636719 131.394531 81.644531 131.269531 80.652344 131.039062 C 79.65625 130.808594 78.691406 130.46875 77.75 130.019531 C 76.808594 129.570312 75.945312 129.019531 75.15625 128.363281 C 74.199219 127.574219 73.460938 126.628906 72.929688 125.527344 C 72.398438 124.425781 72.007812 123.25 71.765625 121.996094 C 71.519531 120.746094 71.390625 119.488281 71.375 118.222656 C 71.363281 116.953125 71.398438 115.765625 71.480469 114.648438 C 71.5625 113.640625 71.765625 112.59375 72.089844 111.503906 C 72.417969 110.417969 72.875 109.347656 73.460938 108.300781 C 74.042969 107.25 74.753906 106.277344 75.582031 105.382812 C 76.414062 104.484375 77.386719 103.722656 78.503906 103.09375 C 79.347656 102.605469 80.292969 102.273438 81.34375 102.09375 C 82.390625 101.917969 83.453125 101.875 84.53125 101.972656 C 85.605469 102.066406 86.628906 102.296875 87.59375 102.664062 C 88.5625 103.03125 89.382812 103.527344 90.066406 104.152344 C 90.5 104.535156 90.957031 105.066406 91.433594 105.746094 C 91.910156 106.425781 92.257812 107.121094 92.476562 107.828125 C 92.695312 108.535156 92.703125 109.195312 92.496094 109.808594 C 92.292969 110.417969 91.742188 110.835938 90.839844 111.050781 C 90.460938 111.164062 90.117188 111.179688 89.820312 111.113281 C 89.519531 111.042969 89.246094 110.921875 89 110.746094 C 88.757812 110.566406 88.523438 110.355469 88.304688 110.113281 C 88.085938 109.867188 87.882812 109.625 87.691406 109.378906 C 87.039062 108.589844 86.277344 108.050781 85.402344 107.765625 C 84.53125 107.480469 83.664062 107.414062 82.808594 107.5625 C 81.949219 107.710938 81.144531 108.066406 80.398438 108.625 C 79.648438 109.183594 79.070312 109.894531 78.660156 110.765625 C 78.222656 111.691406 77.878906 112.707031 77.617188 113.808594 C 77.359375 114.914062 77.214844 116.027344 77.1875 117.15625 C 77.164062 118.285156 77.261719 119.382812 77.496094 120.441406 C 77.726562 121.503906 78.128906 122.441406 78.699219 123.261719 C 79.136719 123.914062 79.675781 124.445312 80.316406 124.851562 C 80.957031 125.261719 81.644531 125.546875 82.378906 125.710938 C 83.113281 125.875 83.859375 125.898438 84.605469 125.792969 C 85.355469 125.683594 86.085938 125.441406 86.792969 125.058594 C 87.011719 124.949219 87.25 124.792969 87.507812 124.589844 C 87.765625 124.386719 88.03125 124.175781 88.304688 123.957031 C 88.574219 123.738281 88.855469 123.535156 89.140625 123.34375 C 89.429688 123.15625 89.734375 123.019531 90.0625 122.9375 C 90.550781 122.773438 91.089844 122.789062 91.675781 122.976562 C 92.269531 123.164062 92.710938 123.558594 93.011719 124.160156 Z M 93.011719 124.160156 " fill-opacity="1" fill-rule="nonzero"/><path fill="#004966" d="M 102.164062 107.011719 L 102.082031 113.421875 L 103.714844 113.421875 C 104.832031 113.394531 105.828125 113.378906 106.699219 113.378906 C 107.570312 113.378906 108.539062 113.394531 109.601562 113.421875 L 109.804688 113.421875 C 110.132812 113.421875 110.453125 113.429688 110.765625 113.441406 C 111.078125 113.453125 111.382812 113.460938 111.683594 113.460938 C 112.011719 113.484375 112.324219 113.535156 112.625 113.601562 C 112.925781 113.671875 113.226562 113.746094 113.523438 113.828125 C 113.988281 113.992188 114.371094 114.234375 114.667969 114.5625 C 114.941406 114.917969 115.078125 115.308594 115.078125 115.746094 C 115.078125 115.882812 115.078125 116.039062 115.078125 116.214844 C 115.078125 116.394531 115.050781 116.550781 114.996094 116.6875 C 114.941406 116.984375 114.761719 117.257812 114.464844 117.503906 C 114.328125 117.695312 114.070312 117.828125 113.691406 117.910156 C 113.335938 118.023438 112.980469 118.089844 112.628906 118.117188 C 112.246094 118.195312 111.863281 118.238281 111.480469 118.238281 L 109.5625 118.238281 L 102.003906 118.277344 L 101.921875 126.28125 L 110.054688 126.363281 L 111.972656 126.363281 C 112.191406 126.363281 112.398438 126.363281 112.585938 126.363281 C 112.777344 126.363281 112.953125 126.378906 113.117188 126.402344 C 113.335938 126.457031 113.53125 126.492188 113.710938 126.507812 C 113.886719 126.519531 114.058594 126.554688 114.21875 126.609375 C 114.546875 126.71875 114.820312 126.867188 115.039062 127.058594 C 115.308594 127.332031 115.488281 127.617188 115.570312 127.917969 C 115.597656 128.054688 115.617188 128.195312 115.632812 128.34375 C 115.644531 128.496094 115.640625 128.652344 115.613281 128.816406 C 115.613281 129.253906 115.476562 129.644531 115.203125 130 C 114.878906 130.382812 114.496094 130.625 114.058594 130.734375 C 113.488281 130.976562 112.859375 131.101562 112.179688 131.101562 C 111.878906 131.125 111.570312 131.140625 111.238281 131.140625 C 110.910156 131.140625 110.597656 131.15625 110.300781 131.183594 L 110.054688 131.183594 C 107.929688 131.238281 105.722656 131.238281 103.433594 131.183594 C 102.886719 131.183594 102.453125 131.175781 102.125 131.164062 C 101.800781 131.148438 101.507812 131.144531 101.246094 131.144531 C 100.988281 131.144531 100.722656 131.144531 100.449219 131.144531 C 100.175781 131.144531 99.824219 131.144531 99.386719 131.144531 C 98.761719 131.199219 98.242188 131.089844 97.835938 130.816406 C 97.535156 130.628906 97.304688 130.371094 97.136719 130.039062 C 97.058594 129.960938 97.015625 129.878906 97.015625 129.796875 C 96.988281 129.742188 96.960938 129.699219 96.933594 129.675781 C 96.90625 129.648438 96.878906 129.605469 96.851562 129.550781 C 96.796875 129.414062 96.757812 129.273438 96.730469 129.121094 C 96.703125 128.972656 96.691406 128.828125 96.691406 128.691406 C 96.664062 128.558594 96.640625 128.421875 96.628906 128.285156 C 96.613281 128.148438 96.59375 128.015625 96.566406 127.878906 L 96.566406 127.226562 C 96.566406 127.117188 96.570312 127.007812 96.585938 126.898438 C 96.601562 126.792969 96.605469 126.683594 96.605469 126.574219 L 96.605469 123.390625 L 96.6875 117.511719 L 96.6875 112.082031 C 96.6875 111.101562 96.695312 110.230469 96.707031 109.46875 C 96.722656 108.703125 96.742188 107.875 96.769531 106.976562 L 96.769531 106.773438 C 96.796875 106.472656 96.820312 106.195312 96.832031 105.9375 C 96.847656 105.675781 96.855469 105.414062 96.855469 105.140625 C 96.882812 104.59375 97.03125 104.066406 97.304688 103.546875 C 97.410156 103.328125 97.53125 103.140625 97.652344 102.976562 C 97.773438 102.8125 97.945312 102.675781 98.164062 102.570312 C 98.570312 102.324219 98.992188 102.203125 99.429688 102.203125 C 99.648438 102.203125 99.8125 102.21875 99.921875 102.242188 L 99.921875 102.203125 C 100.410156 102.203125 100.804688 102.203125 101.105469 102.203125 C 101.40625 102.203125 101.699219 102.203125 101.984375 102.203125 C 102.269531 102.203125 102.578125 102.195312 102.902344 102.179688 C 103.230469 102.167969 103.679688 102.160156 104.25 102.160156 C 105.339844 102.132812 106.375 102.117188 107.355469 102.117188 C 108.339844 102.117188 109.34375 102.132812 110.382812 102.160156 L 110.542969 102.160156 C 110.84375 102.1875 111.15625 102.199219 111.484375 102.199219 C 111.8125 102.199219 112.125 102.214844 112.425781 102.242188 C 112.726562 102.242188 113.027344 102.273438 113.324219 102.34375 C 113.625 102.410156 113.925781 102.5 114.226562 102.609375 C 114.6875 102.746094 115.070312 102.976562 115.371094 103.304688 C 115.613281 103.683594 115.738281 104.066406 115.738281 104.445312 C 115.738281 104.609375 115.738281 104.765625 115.738281 104.917969 C 115.738281 105.066406 115.710938 105.210938 115.65625 105.347656 C 115.628906 105.617188 115.464844 105.90625 115.167969 106.203125 C 115.054688 106.257812 114.941406 106.328125 114.816406 106.40625 C 114.695312 106.488281 114.550781 106.554688 114.386719 106.613281 C 114.226562 106.667969 114.054688 106.699219 113.878906 106.714844 C 113.699219 106.730469 113.53125 106.75 113.367188 106.773438 C 113.148438 106.828125 112.949219 106.855469 112.773438 106.855469 C 112.597656 106.855469 112.398438 106.855469 112.179688 106.855469 L 110.34375 106.855469 L 102.167969 106.898438 L 102.167969 107.011719 Z M 102.164062 107.011719 " fill-opacity="1" fill-rule="nonzero"/><path fill="#004966" d="M 140.085938 129.222656 C 140.113281 129.492188 140.085938 129.75 140.003906 129.996094 C 139.949219 130.160156 139.875 130.296875 139.777344 130.40625 C 139.683594 130.511719 139.566406 130.625 139.429688 130.730469 C 139.1875 130.894531 138.886719 131.042969 138.53125 131.179688 C 138.3125 131.234375 138.101562 131.28125 137.898438 131.324219 C 137.695312 131.363281 137.480469 131.355469 137.265625 131.300781 C 136.828125 131.273438 136.445312 131.109375 136.121094 130.8125 C 135.65625 130.429688 135.273438 130.007812 134.972656 129.546875 C 134.835938 129.328125 134.6875 129.085938 134.527344 128.8125 C 134.363281 128.539062 134.210938 128.253906 134.078125 127.953125 L 129.542969 119.339844 C 129.324219 119.339844 129.105469 119.34375 128.886719 119.359375 C 128.671875 119.375 128.453125 119.394531 128.234375 119.417969 C 127.664062 119.476562 127.125 119.488281 126.621094 119.460938 C 126.117188 119.433594 125.589844 119.433594 125.046875 119.460938 L 124.269531 119.460938 L 124.269531 126.847656 C 124.269531 127.066406 124.261719 127.273438 124.246094 127.460938 C 124.234375 127.652344 124.226562 127.855469 124.226562 128.074219 C 124.226562 128.210938 124.21875 128.386719 124.207031 128.601562 C 124.191406 128.820312 124.171875 129.023438 124.144531 129.214844 C 124.089844 129.511719 123.964844 129.820312 123.777344 130.132812 C 123.585938 130.445312 123.328125 130.710938 123 130.929688 C 122.429688 131.28125 121.734375 131.375 120.917969 131.214844 C 120.5625 131.132812 120.226562 130.996094 119.894531 130.804688 C 119.785156 130.722656 119.691406 130.621094 119.609375 130.5 C 119.527344 130.375 119.460938 130.246094 119.40625 130.109375 C 119.351562 129.972656 119.304688 129.832031 119.261719 129.679688 C 119.222656 129.53125 119.175781 129.386719 119.117188 129.25 C 119.039062 128.980469 118.996094 128.722656 118.996094 128.476562 L 118.996094 105.285156 C 118.996094 105.121094 119.003906 104.953125 119.019531 104.773438 C 119.03125 104.597656 119.050781 104.441406 119.082031 104.304688 C 119.105469 104.003906 119.203125 103.707031 119.367188 103.40625 C 119.449219 103.082031 119.585938 102.847656 119.773438 102.710938 C 119.9375 102.546875 120.1875 102.402344 120.53125 102.28125 C 120.871094 102.160156 121.367188 102.113281 122.019531 102.136719 C 123.246094 102.164062 124.457031 102.179688 125.65625 102.179688 C 126.851562 102.179688 128.054688 102.203125 129.25 102.261719 C 130.039062 102.316406 130.878906 102.402344 131.761719 102.527344 C 132.648438 102.648438 133.472656 102.859375 134.234375 103.160156 C 134.726562 103.351562 135.175781 103.539062 135.585938 103.730469 C 136.101562 104.03125 136.511719 104.316406 136.808594 104.589844 C 137.761719 105.457031 138.484375 106.507812 138.976562 107.730469 C 139.464844 108.957031 139.710938 110.195312 139.710938 111.449219 C 139.710938 112.917969 139.363281 114.265625 138.671875 115.488281 C 137.976562 116.714844 136.867188 117.625 135.339844 118.226562 C 135.285156 118.28125 135.210938 118.3125 135.113281 118.328125 C 135.019531 118.34375 134.941406 118.363281 134.886719 118.386719 L 138.648438 125.941406 L 139.015625 126.59375 C 139.070312 126.699219 139.136719 126.824219 139.21875 126.960938 C 139.300781 127.097656 139.367188 127.234375 139.425781 127.367188 C 139.503906 127.503906 139.578125 127.652344 139.648438 127.816406 C 139.714844 127.980469 139.792969 128.128906 139.875 128.265625 C 139.964844 128.664062 140.03125 128.976562 140.085938 129.222656 Z M 129.871094 114.6875 C 130.359375 114.6875 130.828125 114.597656 131.277344 114.421875 C 131.726562 114.242188 132.136719 114.003906 132.503906 113.707031 C 132.871094 113.40625 133.179688 113.0625 133.425781 112.664062 C 133.667969 112.273438 133.804688 111.84375 133.832031 111.378906 C 133.941406 110.019531 133.585938 109.007812 132.769531 108.339844 C 131.949219 107.671875 130.875 107.3125 129.542969 107.257812 C 128.75 107.203125 127.886719 107.175781 126.945312 107.175781 C 126.007812 107.175781 125.113281 107.175781 124.269531 107.175781 C 124.296875 108.292969 124.304688 109.425781 124.292969 110.585938 C 124.277344 111.742188 124.269531 113.109375 124.269531 114.6875 Z M 129.871094 114.6875 " fill-opacity="1" fill-rule="nonzero"/><path fill="#004966" d="M 163.296875 103.378906 C 163.597656 103.734375 163.746094 104.101562 163.746094 104.484375 C 163.746094 104.644531 163.738281 104.816406 163.726562 104.992188 C 163.710938 105.171875 163.691406 105.328125 163.664062 105.464844 C 163.582031 105.761719 163.402344 106.046875 163.132812 106.320312 C 162.914062 106.484375 162.613281 106.605469 162.230469 106.6875 C 162.039062 106.742188 161.851562 106.785156 161.660156 106.8125 C 161.46875 106.835938 161.265625 106.878906 161.050781 106.933594 C 160.855469 106.960938 160.667969 106.972656 160.476562 106.972656 C 160.285156 106.972656 160.082031 106.972656 159.867188 106.972656 L 157.78125 106.972656 C 157.292969 107 156.808594 107.015625 156.332031 107.015625 C 155.855469 107.015625 155.386719 107.015625 154.925781 107.015625 C 154.949219 107.859375 154.964844 108.761719 154.964844 109.730469 C 154.964844 110.695312 154.957031 111.816406 154.945312 113.097656 C 154.933594 114.378906 154.917969 115.859375 154.90625 117.546875 C 154.890625 119.234375 154.882812 121.195312 154.882812 123.425781 L 154.882812 126.527344 C 154.882812 126.800781 154.898438 127.003906 154.925781 127.140625 C 154.925781 127.246094 154.925781 127.351562 154.925781 127.445312 C 154.925781 127.542969 154.910156 127.65625 154.882812 127.792969 C 154.828125 128.039062 154.789062 128.324219 154.761719 128.652344 C 154.761719 128.789062 154.746094 128.917969 154.71875 129.039062 C 154.695312 129.164062 154.652344 129.292969 154.597656 129.429688 C 154.488281 129.539062 154.433594 129.617188 154.433594 129.675781 L 154.3125 129.917969 C 154.175781 130.191406 153.917969 130.449219 153.535156 130.695312 C 152.933594 130.996094 152.269531 131.0625 151.535156 130.898438 C 151.070312 130.84375 150.714844 130.722656 150.46875 130.53125 C 150.226562 130.289062 150.046875 130.042969 149.941406 129.796875 C 149.777344 129.496094 149.679688 129.210938 149.65625 128.9375 C 149.574219 128.691406 149.53125 128.433594 149.53125 128.160156 L 149.53125 107.175781 C 149.367188 107.175781 149.027344 107.175781 148.507812 107.175781 C 147.992188 107.175781 147.4375 107.171875 146.855469 107.160156 C 146.269531 107.144531 145.714844 107.125 145.199219 107.097656 C 144.679688 107.070312 144.328125 107.039062 144.132812 107.015625 C 143.972656 106.988281 143.71875 106.949219 143.378906 106.890625 C 143.039062 106.835938 142.757812 106.785156 142.542969 106.730469 C 141.96875 106.566406 141.519531 106.308594 141.191406 105.953125 C 140.890625 105.601562 140.742188 105.203125 140.742188 104.769531 C 140.742188 104.605469 140.742188 104.441406 140.742188 104.277344 C 140.742188 104.117188 140.769531 103.96875 140.824219 103.832031 C 140.90625 103.503906 141.125 103.230469 141.476562 103.011719 C 141.585938 102.929688 141.757812 102.828125 141.988281 102.707031 C 142.21875 102.582031 142.445312 102.496094 142.664062 102.441406 C 142.988281 102.332031 143.398438 102.25 143.890625 102.195312 C 144.109375 102.167969 144.324219 102.15625 144.542969 102.15625 C 144.761719 102.15625 144.992188 102.15625 145.234375 102.15625 C 146.1875 102.15625 147.097656 102.15625 147.953125 102.15625 C 148.8125 102.15625 149.714844 102.140625 150.667969 102.113281 C 152.25 102.085938 153.824219 102.082031 155.390625 102.09375 C 156.957031 102.109375 158.515625 102.144531 160.070312 102.199219 C 160.421875 102.222656 160.761719 102.265625 161.09375 102.320312 C 161.417969 102.375 161.746094 102.46875 162.074219 102.605469 C 162.320312 102.6875 162.546875 102.789062 162.765625 102.914062 C 162.984375 103.03125 163.160156 103.1875 163.296875 103.378906 Z M 163.296875 103.378906 " fill-opacity="1" fill-rule="nonzero"/><path fill="#004966" d="M 166.648438 126.6875 L 166.6875 123.464844 L 166.730469 117.464844 C 166.753906 116.59375 166.769531 115.695312 166.769531 114.769531 C 166.769531 113.84375 166.769531 112.890625 166.769531 111.910156 C 166.769531 110.929688 166.769531 110.058594 166.769531 109.296875 C 166.769531 108.535156 166.796875 107.679688 166.851562 106.722656 L 166.851562 106.5625 C 166.878906 106.289062 166.898438 106.011719 166.914062 105.726562 C 166.929688 105.4375 166.933594 105.148438 166.933594 104.847656 C 166.960938 104.359375 167.109375 103.824219 167.382812 103.253906 C 167.570312 102.875 167.855469 102.546875 168.242188 102.273438 C 168.675781 102.054688 169.101562 101.949219 169.507812 101.949219 C 169.726562 101.949219 169.921875 101.957031 170.101562 101.96875 C 170.277344 101.984375 170.449219 102.003906 170.613281 102.03125 C 170.964844 102.085938 171.28125 102.25 171.554688 102.519531 C 171.714844 102.65625 171.863281 102.875 172 103.171875 C 172.058594 103.335938 172.105469 103.492188 172.144531 103.640625 C 172.1875 103.789062 172.21875 103.949219 172.25 104.109375 C 172.273438 104.300781 172.296875 104.476562 172.3125 104.640625 C 172.324219 104.804688 172.332031 104.96875 172.332031 105.128906 C 172.332031 105.320312 172.324219 105.492188 172.3125 105.640625 C 172.296875 105.792969 172.289062 105.949219 172.289062 106.109375 L 172.289062 106.804688 L 172.046875 127.992188 L 172.046875 128.398438 C 172.046875 128.480469 172.039062 128.582031 172.023438 128.707031 C 172.007812 128.828125 171.988281 128.972656 171.960938 129.132812 C 171.90625 129.269531 171.859375 129.414062 171.816406 129.5625 C 171.777344 129.710938 171.726562 129.871094 171.671875 130.035156 C 171.589844 130.171875 171.503906 130.300781 171.40625 130.421875 C 171.3125 130.542969 171.195312 130.660156 171.058594 130.769531 C 170.839844 130.988281 170.488281 131.136719 169.996094 131.21875 C 169.257812 131.382812 168.566406 131.3125 167.914062 131.015625 C 167.585938 130.796875 167.351562 130.523438 167.21875 130.195312 C 167.136719 130.113281 167.097656 130.035156 167.097656 129.953125 C 167.070312 129.898438 167.042969 129.855469 167.015625 129.828125 C 166.988281 129.804688 166.960938 129.761719 166.933594 129.707031 C 166.878906 129.570312 166.835938 129.429688 166.8125 129.277344 C 166.785156 129.128906 166.769531 128.972656 166.769531 128.808594 C 166.742188 128.671875 166.722656 128.539062 166.707031 128.402344 C 166.691406 128.265625 166.675781 128.128906 166.644531 127.992188 C 166.617188 127.773438 166.617188 127.542969 166.644531 127.300781 L 166.644531 126.6875 Z M 166.648438 126.6875 " fill-opacity="1" fill-rule="nonzero"/><path fill="#004966" d="M 195.90625 103.339844 C 196.152344 103.664062 196.300781 104.046875 196.355469 104.484375 C 196.355469 104.644531 196.347656 104.804688 196.332031 104.953125 C 196.320312 105.101562 196.300781 105.246094 196.269531 105.382812 C 196.246094 105.679688 196.066406 105.96875 195.742188 106.238281 C 195.550781 106.375 195.304688 106.511719 195.007812 106.648438 C 194.84375 106.703125 194.671875 106.738281 194.496094 106.75 C 194.316406 106.765625 194.121094 106.785156 193.902344 106.8125 C 193.738281 106.867188 193.5625 106.894531 193.371094 106.894531 C 193.179688 106.894531 192.992188 106.894531 192.800781 106.894531 L 190.964844 106.894531 L 182.421875 106.933594 L 182.421875 107.058594 L 182.382812 113.710938 C 182.597656 113.710938 182.835938 113.710938 183.097656 113.710938 C 183.355469 113.710938 183.675781 113.695312 184.054688 113.671875 C 185.144531 113.671875 186.121094 113.671875 186.976562 113.671875 C 187.835938 113.671875 188.78125 113.683594 189.816406 113.710938 L 190.0625 113.710938 C 190.359375 113.710938 190.664062 113.71875 190.980469 113.734375 C 191.292969 113.746094 191.613281 113.753906 191.941406 113.753906 C 192.238281 113.78125 192.539062 113.8125 192.839844 113.855469 C 193.140625 113.898438 193.441406 113.972656 193.738281 114.082031 C 194.230469 114.246094 194.585938 114.503906 194.804688 114.859375 C 195.101562 115.214844 195.25 115.582031 195.25 115.960938 C 195.25 116.125 195.25 116.285156 195.25 116.433594 C 195.25 116.582031 195.226562 116.738281 195.171875 116.902344 C 195.144531 117.121094 194.964844 117.390625 194.640625 117.71875 C 194.421875 117.910156 194.160156 118.035156 193.863281 118.085938 C 193.726562 118.140625 193.570312 118.191406 193.390625 118.230469 C 193.214844 118.269531 193.027344 118.304688 192.839844 118.332031 C 192.648438 118.359375 192.464844 118.382812 192.289062 118.394531 C 192.109375 118.40625 191.914062 118.414062 191.695312 118.414062 L 189.816406 118.414062 L 182.296875 118.457031 L 182.175781 127.925781 L 182.175781 128.253906 C 182.175781 128.390625 182.167969 128.519531 182.152344 128.640625 C 182.140625 128.761719 182.121094 128.890625 182.089844 129.027344 C 182.035156 129.164062 181.988281 129.308594 181.945312 129.457031 C 181.90625 129.605469 181.859375 129.75 181.804688 129.886719 C 181.609375 130.269531 181.4375 130.527344 181.273438 130.664062 C 180.972656 130.882812 180.605469 131.03125 180.167969 131.113281 C 179.433594 131.277344 178.738281 131.195312 178.085938 130.867188 C 177.949219 130.785156 177.820312 130.683594 177.695312 130.5625 C 177.574219 130.4375 177.472656 130.28125 177.390625 130.089844 C 177.335938 129.984375 177.308594 129.902344 177.308594 129.847656 L 177.183594 129.601562 C 177.105469 129.464844 177.046875 129.324219 177.023438 129.171875 C 176.996094 129.023438 176.96875 128.878906 176.941406 128.742188 C 176.941406 128.605469 176.933594 128.472656 176.921875 128.335938 C 176.90625 128.199219 176.886719 128.066406 176.859375 127.929688 C 176.832031 127.710938 176.832031 127.496094 176.859375 127.277344 L 176.859375 126.625 L 176.898438 123.441406 L 176.941406 117.5625 C 176.96875 116.691406 176.980469 115.804688 176.980469 114.90625 C 176.980469 114.007812 176.980469 113.085938 176.980469 112.132812 C 176.953125 111.148438 176.949219 110.28125 176.960938 109.515625 C 176.976562 108.753906 177.011719 107.925781 177.066406 107.027344 L 177.066406 106.824219 C 177.09375 106.523438 177.105469 106.246094 177.105469 105.984375 C 177.105469 105.726562 177.132812 105.464844 177.1875 105.191406 C 177.242188 104.589844 177.378906 104.0625 177.597656 103.597656 C 177.785156 103.136719 178.058594 102.808594 178.414062 102.617188 C 178.820312 102.371094 179.257812 102.25 179.722656 102.25 C 179.941406 102.25 180.117188 102.265625 180.253906 102.292969 L 180.253906 102.25 C 180.742188 102.25 181.136719 102.25 181.4375 102.25 C 181.738281 102.25 182.023438 102.25 182.296875 102.25 C 182.566406 102.25 182.867188 102.242188 183.195312 102.230469 C 183.523438 102.21875 183.960938 102.210938 184.503906 102.210938 C 186.683594 102.183594 188.835938 102.183594 190.960938 102.210938 L 191.164062 102.210938 C 191.464844 102.234375 191.769531 102.25 192.082031 102.25 C 192.394531 102.25 192.71875 102.265625 193.042969 102.292969 C 193.34375 102.292969 193.644531 102.324219 193.945312 102.394531 C 194.242188 102.464844 194.542969 102.550781 194.84375 102.660156 C 195.308594 102.78125 195.660156 103.011719 195.90625 103.339844 Z M 195.90625 103.339844 " fill-opacity="1" fill-rule="nonzero"/><path fill="#004966" d="M 200.320312 126.6875 L 200.359375 123.464844 L 200.402344 117.464844 C 200.429688 116.59375 200.441406 115.695312 200.441406 114.769531 C 200.441406 113.84375 200.441406 112.890625 200.441406 111.910156 C 200.441406 110.929688 200.441406 110.058594 200.441406 109.296875 C 200.441406 108.535156 200.46875 107.679688 200.523438 106.722656 L 200.523438 106.5625 C 200.550781 106.289062 200.570312 106.011719 200.585938 105.726562 C 200.601562 105.4375 200.605469 105.148438 200.605469 104.847656 C 200.632812 104.359375 200.78125 103.824219 201.054688 103.253906 C 201.242188 102.875 201.53125 102.546875 201.914062 102.273438 C 202.347656 102.054688 202.773438 101.949219 203.179688 101.949219 C 203.398438 101.949219 203.597656 101.957031 203.773438 101.96875 C 203.949219 101.984375 204.121094 102.003906 204.285156 102.03125 C 204.636719 102.085938 204.953125 102.25 205.226562 102.519531 C 205.386719 102.65625 205.539062 102.875 205.675781 103.171875 C 205.730469 103.335938 205.777344 103.492188 205.816406 103.640625 C 205.859375 103.789062 205.890625 103.949219 205.921875 104.109375 C 205.949219 104.300781 205.96875 104.476562 205.984375 104.640625 C 206 104.804688 206.003906 104.96875 206.003906 105.128906 C 206.003906 105.320312 205.996094 105.492188 205.984375 105.640625 C 205.96875 105.792969 205.960938 105.949219 205.960938 106.109375 L 205.960938 106.804688 L 205.71875 127.992188 L 205.71875 128.398438 C 205.71875 128.480469 205.710938 128.582031 205.699219 128.707031 C 205.683594 128.828125 205.664062 128.972656 205.636719 129.132812 C 205.582031 129.269531 205.53125 129.414062 205.492188 129.5625 C 205.449219 129.710938 205.402344 129.871094 205.347656 130.035156 C 205.265625 130.171875 205.175781 130.300781 205.082031 130.421875 C 204.984375 130.542969 204.871094 130.660156 204.734375 130.769531 C 204.515625 130.988281 204.164062 131.136719 203.671875 131.21875 C 202.933594 131.382812 202.238281 131.3125 201.585938 131.015625 C 201.261719 130.796875 201.027344 130.523438 200.894531 130.195312 C 200.8125 130.113281 200.769531 130.035156 200.769531 129.953125 C 200.746094 129.898438 200.714844 129.855469 200.691406 129.828125 C 200.664062 129.804688 200.632812 129.761719 200.609375 129.707031 C 200.554688 129.570312 200.511719 129.429688 200.484375 129.277344 C 200.460938 129.128906 200.445312 128.972656 200.445312 128.808594 C 200.417969 128.671875 200.398438 128.539062 200.382812 128.402344 C 200.367188 128.265625 200.347656 128.128906 200.320312 127.992188 C 200.292969 127.773438 200.292969 127.542969 200.320312 127.300781 Z M 200.320312 126.6875 " fill-opacity="1" fill-rule="nonzero"/><path fill="#004966" d="M 232.191406 124.160156 C 232.546875 124.949219 232.558594 125.71875 232.234375 126.464844 C 231.90625 127.214844 231.386719 127.902344 230.679688 128.527344 C 229.972656 129.152344 229.160156 129.699219 228.25 130.160156 C 227.335938 130.625 226.472656 130.949219 225.65625 131.140625 C 224.753906 131.332031 223.808594 131.417969 222.816406 131.40625 C 221.820312 131.394531 220.828125 131.269531 219.832031 131.039062 C 218.835938 130.808594 217.871094 130.46875 216.933594 130.019531 C 215.992188 129.570312 215.128906 129.019531 214.335938 128.363281 C 213.382812 127.574219 212.640625 126.628906 212.109375 125.527344 C 211.582031 124.425781 211.191406 123.25 210.945312 121.996094 C 210.703125 120.746094 210.570312 119.488281 210.558594 118.222656 C 210.542969 116.953125 210.578125 115.765625 210.660156 114.648438 C 210.742188 113.640625 210.945312 112.59375 211.273438 111.503906 C 211.597656 110.417969 212.054688 109.347656 212.640625 108.300781 C 213.226562 107.25 213.933594 106.277344 214.765625 105.382812 C 215.59375 104.484375 216.570312 103.722656 217.683594 103.09375 C 218.53125 102.605469 219.476562 102.273438 220.523438 102.09375 C 221.574219 101.917969 222.636719 101.875 223.710938 101.972656 C 224.785156 102.066406 225.808594 102.296875 226.777344 102.664062 C 227.742188 103.03125 228.566406 103.527344 229.246094 104.152344 C 229.683594 104.535156 230.140625 105.066406 230.617188 105.746094 C 231.089844 106.425781 231.4375 107.121094 231.65625 107.828125 C 231.875 108.535156 231.882812 109.195312 231.675781 109.808594 C 231.472656 110.417969 230.921875 110.835938 230.019531 111.050781 C 229.640625 111.164062 229.296875 111.179688 229 111.113281 C 228.699219 111.042969 228.425781 110.921875 228.179688 110.746094 C 227.933594 110.566406 227.703125 110.355469 227.484375 110.113281 C 227.265625 109.867188 227.0625 109.625 226.871094 109.378906 C 226.21875 108.589844 225.457031 108.050781 224.582031 107.765625 C 223.710938 107.480469 222.84375 107.414062 221.988281 107.5625 C 221.128906 107.710938 220.324219 108.066406 219.578125 108.625 C 218.828125 109.183594 218.25 109.894531 217.839844 110.765625 C 217.402344 111.691406 217.054688 112.707031 216.796875 113.808594 C 216.539062 114.914062 216.394531 116.027344 216.367188 117.15625 C 216.339844 118.285156 216.441406 119.382812 216.675781 120.441406 C 216.90625 121.503906 217.308594 122.441406 217.878906 123.261719 C 218.3125 123.914062 218.855469 124.445312 219.496094 124.851562 C 220.136719 125.261719 220.820312 125.546875 221.558594 125.710938 C 222.292969 125.875 223.035156 125.898438 223.785156 125.792969 C 224.535156 125.683594 225.265625 125.441406 225.972656 125.058594 C 226.191406 124.949219 226.429688 124.792969 226.6875 124.589844 C 226.945312 124.386719 227.210938 124.175781 227.484375 123.957031 C 227.753906 123.738281 228.035156 123.535156 228.320312 123.34375 C 228.605469 123.15625 228.914062 123.019531 229.242188 122.9375 C 229.730469 122.773438 230.269531 122.789062 230.855469 122.976562 C 231.449219 123.164062 231.890625 123.558594 232.191406 124.160156 Z M 232.191406 124.160156 " fill-opacity="1" fill-rule="nonzero"/><path fill="#004966" d="M 260.960938 128.238281 C 260.988281 128.402344 261.007812 128.5625 261.023438 128.710938 C 261.039062 128.859375 261.042969 129.03125 261.042969 129.222656 C 261.042969 129.546875 260.949219 129.847656 260.757812 130.121094 C 260.675781 130.257812 260.566406 130.386719 260.429688 130.507812 C 260.292969 130.628906 260.132812 130.734375 259.941406 130.816406 C 259.261719 131.195312 258.539062 131.332031 257.777344 131.222656 C 257.394531 131.113281 257.054688 130.9375 256.753906 130.691406 C 256.699219 130.636719 256.660156 130.605469 256.632812 130.589844 C 256.605469 130.574219 256.578125 130.542969 256.550781 130.488281 C 256.523438 130.460938 256.496094 130.425781 256.46875 130.382812 C 256.441406 130.34375 256.402344 130.308594 256.347656 130.28125 C 256.210938 130.144531 256.101562 130.015625 256.019531 129.890625 C 255.9375 129.769531 255.855469 129.640625 255.777344 129.503906 C 255.71875 129.367188 255.660156 129.238281 255.589844 129.117188 C 255.523438 128.992188 255.445312 128.863281 255.367188 128.726562 C 255.308594 128.617188 255.253906 128.515625 255.203125 128.421875 C 255.148438 128.324219 255.105469 128.222656 255.078125 128.113281 C 254.96875 127.867188 254.902344 127.648438 254.875 127.460938 L 254.015625 125.460938 C 252.136719 125.460938 250.261719 125.46875 248.398438 125.484375 C 246.53125 125.496094 244.660156 125.488281 242.78125 125.460938 L 241.921875 127.460938 C 241.867188 127.570312 241.832031 127.679688 241.816406 127.785156 C 241.804688 127.894531 241.769531 128.003906 241.714844 128.113281 C 241.660156 128.222656 241.613281 128.324219 241.570312 128.421875 C 241.53125 128.515625 241.480469 128.617188 241.425781 128.726562 C 241.34375 128.863281 241.269531 128.992188 241.203125 129.117188 C 241.132812 129.238281 241.058594 129.367188 240.976562 129.503906 C 240.921875 129.640625 240.851562 129.769531 240.773438 129.890625 C 240.691406 130.015625 240.578125 130.144531 240.445312 130.28125 C 240.390625 130.308594 240.347656 130.34375 240.324219 130.382812 C 240.296875 130.425781 240.269531 130.457031 240.242188 130.488281 C 240.214844 130.542969 240.1875 130.574219 240.160156 130.589844 C 240.132812 130.605469 240.09375 130.636719 240.039062 130.691406 C 239.738281 130.9375 239.398438 131.113281 239.015625 131.222656 C 238.253906 131.332031 237.53125 131.195312 236.851562 130.816406 C 236.660156 130.734375 236.496094 130.628906 236.359375 130.507812 C 236.222656 130.386719 236.117188 130.257812 236.035156 130.121094 C 235.84375 129.847656 235.75 129.550781 235.75 129.222656 C 235.75 129.03125 235.757812 128.859375 235.769531 128.710938 C 235.785156 128.5625 235.804688 128.402344 235.832031 128.238281 C 235.886719 127.996094 235.957031 127.75 236.035156 127.507812 L 236.160156 127.140625 L 244.660156 106.238281 L 244.90625 105.585938 C 244.960938 105.421875 245.027344 105.273438 245.109375 105.136719 C 245.191406 105 245.257812 104.835938 245.3125 104.648438 C 245.449219 104.296875 245.597656 103.980469 245.761719 103.707031 C 245.84375 103.546875 245.9375 103.398438 246.046875 103.261719 C 246.15625 103.125 246.265625 102.988281 246.375 102.851562 C 246.535156 102.632812 246.765625 102.460938 247.066406 102.324219 C 247.449219 102.1875 247.890625 102.117188 248.394531 102.117188 C 248.898438 102.117188 249.339844 102.1875 249.722656 102.324219 C 250.019531 102.460938 250.25 102.636719 250.417969 102.851562 C 250.605469 103.097656 250.808594 103.382812 251.027344 103.710938 C 251.191406 103.984375 251.339844 104.296875 251.476562 104.652344 C 251.53125 104.839844 251.601562 105.003906 251.679688 105.140625 C 251.761719 105.277344 251.832031 105.425781 251.886719 105.589844 L 252.128906 106.238281 L 260.628906 127.140625 L 260.753906 127.507812 C 260.839844 127.75 260.90625 127.996094 260.960938 128.238281 Z M 251.277344 118.238281 C 250.921875 117.449219 250.5625 116.632812 250.195312 115.789062 C 249.828125 114.945312 249.4375 114.089844 249.03125 113.21875 C 248.917969 112.972656 248.8125 112.722656 248.703125 112.460938 C 248.59375 112.203125 248.484375 111.949219 248.375 111.707031 C 248.296875 111.949219 248.199219 112.203125 248.089844 112.460938 C 247.984375 112.722656 247.871094 112.972656 247.765625 113.21875 C 247.355469 114.085938 246.96875 114.945312 246.601562 115.789062 C 246.234375 116.632812 245.871094 117.449219 245.519531 118.238281 L 244.785156 120.035156 L 252.015625 120.035156 Z M 251.277344 118.238281 " fill-opacity="1" fill-rule="nonzero"/><path fill="#004966" d="M 281.558594 103.378906 C 281.855469 103.734375 282.007812 104.101562 282.007812 104.484375 C 282.007812 104.644531 282 104.816406 281.984375 104.992188 C 281.96875 105.171875 281.949219 105.328125 281.921875 105.464844 C 281.839844 105.761719 281.664062 106.046875 281.390625 106.320312 C 281.171875 106.484375 280.875 106.605469 280.492188 106.6875 C 280.300781 106.742188 280.109375 106.785156 279.921875 106.8125 C 279.730469 106.835938 279.523438 106.878906 279.308594 106.933594 C 279.117188 106.960938 278.925781 106.972656 278.738281 106.972656 C 278.546875 106.972656 278.339844 106.972656 278.125 106.972656 L 276.042969 106.972656 C 275.554688 107 275.066406 107.015625 274.59375 107.015625 C 274.117188 107.015625 273.644531 107.015625 273.183594 107.015625 C 273.210938 107.859375 273.226562 108.761719 273.226562 109.730469 C 273.226562 110.695312 273.21875 111.816406 273.207031 113.097656 C 273.191406 114.378906 273.179688 115.859375 273.164062 117.546875 C 273.152344 119.234375 273.144531 121.195312 273.144531 123.425781 L 273.144531 126.527344 C 273.144531 126.800781 273.15625 127.003906 273.183594 127.140625 C 273.183594 127.246094 273.183594 127.351562 273.183594 127.445312 C 273.183594 127.542969 273.167969 127.65625 273.144531 127.792969 C 273.089844 128.039062 273.046875 128.324219 273.019531 128.652344 C 273.019531 128.789062 273.007812 128.917969 272.980469 129.039062 C 272.953125 129.164062 272.914062 129.292969 272.859375 129.429688 C 272.75 129.539062 272.695312 129.617188 272.695312 129.675781 L 272.570312 129.917969 C 272.433594 130.191406 272.175781 130.449219 271.792969 130.695312 C 271.195312 130.996094 270.527344 131.0625 269.792969 130.898438 C 269.328125 130.84375 268.976562 130.722656 268.730469 130.53125 C 268.484375 130.289062 268.308594 130.042969 268.199219 129.796875 C 268.035156 129.496094 267.941406 129.210938 267.914062 128.9375 C 267.832031 128.691406 267.792969 128.433594 267.792969 128.160156 L 267.792969 107.175781 C 267.628906 107.175781 267.289062 107.175781 266.769531 107.175781 C 266.25 107.175781 265.699219 107.171875 265.113281 107.160156 C 264.527344 107.144531 263.976562 107.125 263.457031 107.097656 C 262.9375 107.070312 262.585938 107.039062 262.394531 107.015625 C 262.230469 106.988281 261.980469 106.949219 261.636719 106.890625 C 261.296875 106.835938 261.019531 106.785156 260.800781 106.730469 C 260.230469 106.566406 259.777344 106.308594 259.453125 105.953125 C 259.152344 105.601562 259.003906 105.203125 259.003906 104.769531 C 259.003906 104.605469 259.003906 104.441406 259.003906 104.277344 C 259.003906 104.117188 259.03125 103.96875 259.085938 103.832031 C 259.167969 103.503906 259.386719 103.230469 259.738281 103.011719 C 259.847656 102.929688 260.015625 102.828125 260.25 102.707031 C 260.480469 102.582031 260.703125 102.496094 260.921875 102.441406 C 261.25 102.332031 261.660156 102.25 262.148438 102.195312 C 262.367188 102.167969 262.585938 102.15625 262.800781 102.15625 C 263.019531 102.15625 263.25 102.15625 263.496094 102.15625 C 264.449219 102.15625 265.355469 102.15625 266.210938 102.15625 C 267.070312 102.15625 267.976562 102.140625 268.929688 102.113281 C 270.507812 102.085938 272.082031 102.082031 273.648438 102.09375 C 275.214844 102.109375 276.777344 102.144531 278.328125 102.199219 C 278.683594 102.222656 279.023438 102.265625 279.351562 102.320312 C 279.679688 102.375 280.003906 102.46875 280.332031 102.605469 C 280.578125 102.6875 280.808594 102.789062 281.027344 102.914062 C 281.242188 103.03125 281.421875 103.1875 281.558594 103.378906 Z M 281.558594 103.378906 " fill-opacity="1" fill-rule="nonzero"/><path fill="#004966" d="M 290.875 107.011719 L 290.792969 113.421875 L 292.425781 113.421875 C 293.542969 113.394531 294.539062 113.378906 295.410156 113.378906 C 296.28125 113.378906 297.246094 113.394531 298.3125 113.421875 L 298.515625 113.421875 C 298.839844 113.421875 299.164062 113.429688 299.472656 113.441406 C 299.785156 113.453125 300.09375 113.460938 300.394531 113.460938 C 300.71875 113.484375 301.035156 113.535156 301.335938 113.601562 C 301.632812 113.671875 301.933594 113.746094 302.234375 113.828125 C 302.699219 113.992188 303.078125 114.234375 303.378906 114.5625 C 303.648438 114.917969 303.785156 115.308594 303.785156 115.746094 C 303.785156 115.882812 303.785156 116.039062 303.785156 116.214844 C 303.785156 116.394531 303.761719 116.550781 303.707031 116.6875 C 303.648438 116.984375 303.472656 117.257812 303.175781 117.503906 C 303.039062 117.695312 302.777344 117.828125 302.398438 117.910156 C 302.042969 118.023438 301.691406 118.089844 301.335938 118.117188 C 300.957031 118.195312 300.574219 118.238281 300.191406 118.238281 L 298.273438 118.238281 L 290.710938 118.277344 L 290.632812 126.28125 L 298.765625 126.363281 L 300.683594 126.363281 C 300.902344 126.363281 301.105469 126.363281 301.296875 126.363281 C 301.484375 126.363281 301.664062 126.378906 301.828125 126.402344 C 302.042969 126.457031 302.242188 126.492188 302.417969 126.507812 C 302.597656 126.519531 302.765625 126.554688 302.929688 126.609375 C 303.257812 126.71875 303.53125 126.867188 303.75 127.058594 C 304.019531 127.332031 304.199219 127.617188 304.277344 127.917969 C 304.304688 128.054688 304.328125 128.195312 304.339844 128.34375 C 304.355469 128.496094 304.347656 128.652344 304.320312 128.816406 C 304.320312 129.253906 304.183594 129.644531 303.914062 130 C 303.585938 130.382812 303.207031 130.625 302.769531 130.734375 C 302.199219 130.976562 301.570312 131.101562 300.890625 131.101562 C 300.589844 131.125 300.277344 131.140625 299.949219 131.140625 C 299.621094 131.140625 299.308594 131.15625 299.007812 131.183594 L 298.765625 131.183594 C 296.640625 131.238281 294.433594 131.238281 292.144531 131.183594 C 291.601562 131.183594 291.164062 131.175781 290.835938 131.164062 C 290.511719 131.148438 290.21875 131.144531 289.960938 131.144531 C 289.699219 131.144531 289.433594 131.144531 289.164062 131.144531 C 288.890625 131.144531 288.535156 131.144531 288.097656 131.144531 C 287.472656 131.199219 286.953125 131.089844 286.546875 130.816406 C 286.246094 130.628906 286.015625 130.371094 285.851562 130.039062 C 285.769531 129.960938 285.726562 129.878906 285.726562 129.796875 C 285.703125 129.742188 285.671875 129.699219 285.648438 129.675781 C 285.621094 129.648438 285.589844 129.605469 285.566406 129.550781 C 285.511719 129.414062 285.46875 129.273438 285.441406 129.121094 C 285.417969 128.972656 285.402344 128.828125 285.402344 128.691406 C 285.375 128.558594 285.355469 128.421875 285.339844 128.285156 C 285.324219 128.148438 285.304688 128.015625 285.277344 127.878906 L 285.277344 127.226562 C 285.277344 127.117188 285.285156 127.007812 285.296875 126.898438 C 285.3125 126.792969 285.316406 126.683594 285.316406 126.574219 L 285.316406 123.390625 L 285.398438 117.511719 L 285.398438 112.082031 C 285.398438 111.101562 285.40625 110.230469 285.421875 109.46875 C 285.433594 108.703125 285.453125 107.875 285.484375 106.976562 L 285.484375 106.773438 C 285.511719 106.472656 285.53125 106.195312 285.546875 105.9375 C 285.558594 105.675781 285.566406 105.414062 285.566406 105.140625 C 285.589844 104.59375 285.742188 104.066406 286.015625 103.546875 C 286.121094 103.328125 286.238281 103.140625 286.363281 102.976562 C 286.484375 102.8125 286.65625 102.675781 286.871094 102.570312 C 287.28125 102.324219 287.703125 102.203125 288.140625 102.203125 C 288.359375 102.203125 288.523438 102.21875 288.628906 102.242188 L 288.628906 102.203125 C 289.121094 102.203125 289.515625 102.203125 289.816406 102.203125 C 290.113281 102.203125 290.40625 102.203125 290.695312 102.203125 C 290.980469 102.203125 291.285156 102.195312 291.613281 102.179688 C 291.9375 102.167969 292.390625 102.160156 292.960938 102.160156 C 294.050781 102.132812 295.085938 102.117188 296.066406 102.117188 C 297.046875 102.117188 298.054688 102.132812 299.089844 102.160156 L 299.253906 102.160156 C 299.554688 102.1875 299.867188 102.199219 300.195312 102.199219 C 300.523438 102.199219 300.835938 102.214844 301.136719 102.242188 C 301.433594 102.242188 301.734375 102.273438 302.035156 102.34375 C 302.335938 102.410156 302.636719 102.5 302.933594 102.609375 C 303.398438 102.746094 303.78125 102.976562 304.078125 103.304688 C 304.324219 103.683594 304.445312 104.066406 304.445312 104.445312 C 304.445312 104.609375 304.445312 104.765625 304.445312 104.917969 C 304.445312 105.066406 304.421875 105.210938 304.367188 105.347656 C 304.339844 105.617188 304.171875 105.90625 303.875 106.203125 C 303.765625 106.257812 303.648438 106.328125 303.527344 106.40625 C 303.40625 106.488281 303.261719 106.554688 303.097656 106.613281 C 302.933594 106.667969 302.765625 106.699219 302.585938 106.714844 C 302.410156 106.730469 302.238281 106.75 302.074219 106.773438 C 301.859375 106.828125 301.660156 106.855469 301.484375 106.855469 C 301.304688 106.855469 301.109375 106.855469 300.890625 106.855469 L 299.050781 106.855469 L 290.878906 106.898438 L 290.878906 107.011719 Z M 290.875 107.011719 " fill-opacity="1" fill-rule="nonzero"/><path fill="#004966" d="M 303.066406 156.917969 L 75.679688 156.917969 C 74.015625 156.917969 72.667969 155.574219 72.667969 153.910156 C 72.667969 152.25 74.015625 150.90625 75.679688 150.90625 L 303.066406 150.90625 C 304.726562 150.90625 306.074219 152.25 306.074219 153.910156 C 306.074219 155.574219 304.726562 156.917969 303.066406 156.917969 Z M 303.066406 156.917969 " fill-opacity="1" fill-rule="nonzero"/><path fill="#004966" d="M 303.066406 175.359375 L 75.679688 175.359375 C 74.015625 175.359375 72.667969 174.015625 72.667969 172.351562 C 72.667969 170.691406 74.015625 169.347656 75.679688 169.347656 L 303.066406 169.347656 C 304.726562 169.347656 306.074219 170.691406 306.074219 172.351562 C 306.074219 174.011719 304.726562 175.359375 303.066406 175.359375 Z M 303.066406 175.359375 " fill-opacity="1" fill-rule="nonzero"/><path fill="#f7a334" d="M 24.558594 242.121094 C 25.414062 242.261719 26.25 242.480469 27.0625 242.785156 C 27.875 243.089844 28.652344 243.46875 29.390625 243.925781 C 30.128906 244.378906 30.816406 244.902344 31.449219 245.496094 C 32.085938 246.085938 32.65625 246.734375 33.164062 247.4375 C 33.671875 248.140625 34.105469 248.886719 34.464844 249.675781 C 34.828125 250.464844 35.105469 251.28125 35.304688 252.125 C 35.503906 252.96875 35.621094 253.824219 35.652344 254.691406 C 35.683594 255.558594 35.628906 256.417969 35.488281 257.277344 C 35.351562 258.132812 35.128906 258.964844 34.824219 259.777344 C 34.523438 260.589844 34.140625 261.367188 33.683594 262.105469 C 33.230469 262.839844 32.703125 263.527344 32.113281 264.164062 C 31.523438 264.796875 30.875 265.367188 30.167969 265.875 C 29.464844 266.382812 28.71875 266.816406 27.929688 267.175781 C 27.136719 267.535156 26.320312 267.816406 25.476562 268.015625 C 24.632812 268.214844 23.773438 268.328125 22.90625 268.359375 C 22.039062 268.390625 21.179688 268.335938 20.320312 268.195312 C 19.464844 268.058594 18.628906 267.835938 17.816406 267.535156 C 17.003906 267.230469 16.226562 266.851562 15.488281 266.394531 C 14.75 265.9375 14.0625 265.414062 13.429688 264.824219 C 12.792969 264.234375 12.222656 263.585938 11.714844 262.882812 C 11.207031 262.179688 10.773438 261.433594 10.410156 260.644531 C 10.050781 259.855469 9.773438 259.039062 9.570312 258.195312 C 9.371094 257.351562 9.257812 256.496094 9.226562 255.628906 C 9.195312 254.761719 9.25 253.898438 9.390625 253.042969 C 9.527344 252.1875 9.75 251.351562 10.054688 250.539062 C 10.355469 249.726562 10.738281 248.953125 11.191406 248.214844 C 11.648438 247.476562 12.171875 246.792969 12.765625 246.15625 C 13.355469 245.523438 14.003906 244.953125 14.710938 244.445312 C 15.414062 243.9375 16.160156 243.503906 16.949219 243.144531 C 17.738281 242.785156 18.558594 242.503906 19.402344 242.304688 C 20.246094 242.105469 21.101562 241.992188 21.972656 241.960938 C 22.839844 241.929688 23.699219 241.984375 24.558594 242.121094 Z M 24.558594 242.121094 " fill-opacity="1" fill-rule="nonzero"/><path fill="#f7a334" d="M 359.582031 245.816406 C 360.195312 246.429688 360.742188 247.097656 361.222656 247.816406 C 361.707031 248.539062 362.113281 249.300781 362.445312 250.101562 C 362.777344 250.902344 363.027344 251.730469 363.199219 252.578125 C 363.367188 253.429688 363.453125 254.289062 363.453125 255.15625 C 363.453125 256.023438 363.367188 256.882812 363.199219 257.734375 C 363.027344 258.582031 362.777344 259.410156 362.445312 260.210938 C 362.113281 261.011719 361.707031 261.773438 361.222656 262.496094 C 360.742188 263.214844 360.195312 263.882812 359.582031 264.496094 C 358.964844 265.109375 358.296875 265.65625 357.578125 266.136719 C 356.855469 266.621094 356.09375 267.027344 355.292969 267.359375 C 354.488281 267.691406 353.664062 267.941406 352.8125 268.109375 C 351.960938 268.28125 351.101562 268.363281 350.230469 268.363281 C 349.363281 268.363281 348.503906 268.28125 347.652344 268.109375 C 346.800781 267.941406 345.976562 267.691406 345.171875 267.359375 C 344.371094 267.027344 343.609375 266.621094 342.886719 266.140625 C 342.164062 265.65625 341.496094 265.109375 340.882812 264.496094 C 340.269531 263.882812 339.722656 263.214844 339.238281 262.496094 C 338.757812 261.773438 338.351562 261.011719 338.015625 260.210938 C 337.683594 259.410156 337.433594 258.585938 337.265625 257.734375 C 337.09375 256.882812 337.011719 256.023438 337.011719 255.15625 C 337.011719 254.289062 337.09375 253.429688 337.265625 252.578125 C 337.433594 251.730469 337.683594 250.902344 338.015625 250.101562 C 338.347656 249.300781 338.757812 248.539062 339.238281 247.820312 C 339.722656 247.097656 340.269531 246.429688 340.882812 245.816406 C 341.496094 245.203125 342.164062 244.65625 342.886719 244.175781 C 343.609375 243.691406 344.371094 243.285156 345.171875 242.953125 C 345.972656 242.621094 346.800781 242.371094 347.652344 242.203125 C 348.503906 242.03125 349.363281 241.949219 350.230469 241.949219 C 351.097656 241.949219 351.960938 242.03125 352.8125 242.203125 C 353.664062 242.371094 354.488281 242.621094 355.289062 242.953125 C 356.09375 243.285156 356.855469 243.691406 357.578125 244.175781 C 358.296875 244.65625 358.964844 245.203125 359.582031 245.816406 Z M 359.582031 245.816406 " fill-opacity="1" fill-rule="nonzero"/><path fill="#f7a334" d="M 34.648438 59.601562 C 34.980469 60.402344 35.234375 61.230469 35.402344 62.082031 C 35.570312 62.929688 35.65625 63.789062 35.65625 64.65625 C 35.65625 65.523438 35.570312 66.382812 35.402344 67.234375 C 35.234375 68.085938 34.980469 68.910156 34.648438 69.710938 C 34.316406 70.511719 33.910156 71.273438 33.429688 71.996094 C 32.945312 72.714844 32.398438 73.382812 31.785156 73.996094 C 31.167969 74.609375 30.503906 75.15625 29.78125 75.640625 C 29.058594 76.121094 28.296875 76.527344 27.496094 76.859375 C 26.691406 77.191406 25.867188 77.441406 25.015625 77.613281 C 24.164062 77.78125 23.304688 77.867188 22.433594 77.867188 C 21.566406 77.867188 20.707031 77.78125 19.855469 77.613281 C 19.003906 77.441406 18.179688 77.191406 17.375 76.859375 C 16.574219 76.527344 15.8125 76.121094 15.089844 75.640625 C 14.367188 75.15625 13.699219 74.609375 13.085938 73.996094 C 12.472656 73.382812 11.925781 72.714844 11.441406 71.996094 C 10.960938 71.273438 10.554688 70.511719 10.222656 69.710938 C 9.886719 68.910156 9.636719 68.085938 9.46875 67.234375 C 9.300781 66.382812 9.214844 65.523438 9.214844 64.65625 C 9.214844 63.789062 9.300781 62.929688 9.46875 62.082031 C 9.636719 61.230469 9.886719 60.402344 10.222656 59.601562 C 10.554688 58.800781 10.960938 58.039062 11.441406 57.320312 C 11.925781 56.597656 12.472656 55.929688 13.085938 55.316406 C 13.699219 54.703125 14.367188 54.15625 15.089844 53.675781 C 15.8125 53.191406 16.574219 52.785156 17.375 52.453125 C 18.179688 52.121094 19.003906 51.871094 19.855469 51.703125 C 20.707031 51.535156 21.566406 51.449219 22.433594 51.449219 C 23.304688 51.449219 24.164062 51.535156 25.015625 51.703125 C 25.867188 51.871094 26.691406 52.121094 27.496094 52.453125 C 28.296875 52.785156 29.058594 53.191406 29.78125 53.675781 C 30.503906 54.15625 31.167969 54.703125 31.785156 55.316406 C 32.398438 55.929688 32.945312 56.597656 33.429688 57.320312 C 33.910156 58.039062 34.316406 58.800781 34.648438 59.601562 Z M 34.648438 59.601562 " fill-opacity="1" fill-rule="nonzero"/><path fill="#f7a334" d="M 353.304688 51.835938 C 354.148438 52.035156 354.964844 52.316406 355.753906 52.675781 C 356.542969 53.035156 357.292969 53.46875 357.996094 53.976562 C 358.699219 54.484375 359.347656 55.054688 359.941406 55.6875 C 360.53125 56.324219 361.054688 57.007812 361.511719 57.746094 C 361.96875 58.484375 362.347656 59.261719 362.652344 60.074219 C 362.953125 60.886719 363.175781 61.71875 363.316406 62.574219 C 363.453125 63.429688 363.507812 64.292969 363.476562 65.160156 C 363.445312 66.027344 363.332031 66.882812 363.132812 67.726562 C 362.933594 68.570312 362.652344 69.386719 362.292969 70.175781 C 361.929688 70.964844 361.496094 71.710938 360.988281 72.414062 C 360.480469 73.117188 359.910156 73.765625 359.273438 74.355469 C 358.640625 74.945312 357.953125 75.46875 357.214844 75.925781 C 356.476562 76.382812 355.699219 76.761719 354.886719 77.066406 C 354.074219 77.367188 353.238281 77.589844 352.382812 77.726562 C 351.523438 77.867188 350.664062 77.921875 349.796875 77.890625 C 348.925781 77.859375 348.070312 77.746094 347.226562 77.546875 C 346.382812 77.34375 345.566406 77.066406 344.773438 76.707031 C 343.984375 76.34375 343.238281 75.910156 342.535156 75.40625 C 341.828125 74.898438 341.183594 74.328125 340.589844 73.691406 C 340 73.058594 339.472656 72.371094 339.019531 71.632812 C 338.5625 70.894531 338.183594 70.121094 337.878906 69.308594 C 337.574219 68.496094 337.355469 67.660156 337.214844 66.804688 C 337.074219 65.949219 337.023438 65.085938 337.050781 64.222656 C 337.082031 63.355469 337.199219 62.5 337.398438 61.65625 C 337.597656 60.8125 337.878906 59.996094 338.238281 59.207031 C 338.597656 58.417969 339.03125 57.671875 339.539062 56.964844 C 340.046875 56.261719 340.621094 55.617188 341.253906 55.023438 C 341.890625 54.433594 342.578125 53.910156 343.316406 53.453125 C 344.054688 53 344.828125 52.617188 345.644531 52.316406 C 346.457031 52.011719 347.292969 51.792969 348.148438 51.652344 C 349.003906 51.515625 349.867188 51.460938 350.734375 51.492188 C 351.601562 51.519531 352.457031 51.636719 353.304688 51.835938 Z M 353.304688 51.835938 " fill-opacity="1" fill-rule="nonzero"/></svg>