<svg xmlns="http://www.w3.org/2000/svg" xmlns:xlink="http://www.w3.org/1999/xlink" width="1920" zoomAndPan="magnify" viewBox="0 0 1440 809.999993" height="1080" preserveAspectRatio="xMidYMid meet" version="1.0"><defs><clipPath id="b10677839f"><path d="M 487.835938 169 L 939.335938 169 L 939.335938 577.703125 L 487.835938 577.703125 Z M 487.835938 169 " clip-rule="nonzero"/></clipPath><clipPath id="cb5c86af5c"><path d="M 558.738281 211.414062 L 868.488281 211.414062 L 868.488281 535 L 558.738281 535 Z M 558.738281 211.414062 " clip-rule="nonzero"/></clipPath><clipPath id="21dcc17c05"><path d="M 1162.429688 289.003906 L 1274.929688 289.003906 L 1274.929688 401.503906 L 1162.429688 401.503906 Z M 1162.429688 289.003906 " clip-rule="nonzero"/></clipPath><clipPath id="06486eced7"><path d="M 219 168.953125 L 303.730469 168.953125 L 303.730469 264.203125 L 219 264.203125 Z M 219 168.953125 " clip-rule="nonzero"/></clipPath><clipPath id="c1d0e480ad"><path d="M 218.980469 535.414062 L 324.730469 535.414062 L 324.730469 641.164062 L 218.980469 641.164062 Z M 218.980469 535.414062 " clip-rule="nonzero"/></clipPath></defs><path fill="#ffffff" d="M 855.730469 576.699219 L 839.558594 576.699219 C 838.929688 576.699219 838.425781 576.199219 838.425781 575.570312 C 838.425781 574.9375 838.929688 574.4375 839.558594 574.4375 L 855.730469 574.4375 C 859.078125 574.4375 862.425781 574.226562 865.710938 573.820312 C 866.324219 573.757812 866.890625 574.179688 866.972656 574.808594 C 867.054688 575.421875 866.617188 575.988281 865.984375 576.070312 C 862.621094 576.492188 859.160156 576.699219 855.730469 576.699219 Z M 823.386719 576.699219 L 807.214844 576.699219 C 806.582031 576.699219 806.082031 576.199219 806.082031 575.570312 C 806.082031 574.9375 806.582031 574.4375 807.214844 574.4375 L 823.386719 574.4375 C 824.015625 574.4375 824.519531 574.9375 824.519531 575.570312 C 824.519531 576.199219 824.015625 576.699219 823.386719 576.699219 Z M 791.039062 576.699219 L 774.867188 576.699219 C 774.238281 576.699219 773.734375 576.199219 773.734375 575.570312 C 773.734375 574.9375 774.238281 574.4375 774.867188 574.4375 L 791.039062 574.4375 C 791.671875 574.4375 792.171875 574.9375 792.171875 575.570312 C 792.171875 576.199219 791.671875 576.699219 791.039062 576.699219 Z M 758.695312 576.699219 L 742.523438 576.699219 C 741.890625 576.699219 741.390625 576.199219 741.390625 575.570312 C 741.390625 574.9375 741.890625 574.4375 742.523438 574.4375 L 758.695312 574.4375 C 759.328125 574.4375 759.828125 574.9375 759.828125 575.570312 C 759.828125 576.199219 759.328125 576.699219 758.695312 576.699219 Z M 726.351562 576.699219 L 710.175781 576.699219 C 709.546875 576.699219 709.046875 576.199219 709.046875 575.570312 C 709.046875 574.9375 709.546875 574.4375 710.175781 574.4375 L 726.351562 574.4375 C 726.980469 574.4375 727.480469 574.9375 727.480469 575.570312 C 727.480469 576.199219 726.980469 576.699219 726.351562 576.699219 Z M 694.003906 576.699219 L 677.832031 576.699219 C 677.203125 576.699219 676.699219 576.199219 676.699219 575.570312 C 676.699219 574.9375 677.203125 574.4375 677.832031 574.4375 L 694.003906 574.4375 C 694.636719 574.4375 695.136719 574.9375 695.136719 575.570312 C 695.136719 576.199219 694.636719 576.699219 694.003906 576.699219 Z M 661.660156 576.699219 L 645.488281 576.699219 C 644.855469 576.699219 644.355469 576.199219 644.355469 575.570312 C 644.355469 574.9375 644.855469 574.4375 645.488281 574.4375 L 661.660156 574.4375 C 662.289062 574.4375 662.792969 574.9375 662.792969 575.570312 C 662.792969 576.199219 662.289062 576.699219 661.660156 576.699219 Z M 629.3125 576.699219 L 613.140625 576.699219 C 612.511719 576.699219 612.007812 576.199219 612.007812 575.570312 C 612.007812 574.9375 612.511719 574.4375 613.140625 574.4375 L 629.3125 574.4375 C 629.945312 574.4375 630.445312 574.9375 630.445312 575.570312 C 630.445312 576.199219 629.945312 576.699219 629.3125 576.699219 Z M 596.96875 576.699219 L 580.796875 576.699219 C 580.164062 576.699219 579.664062 576.199219 579.664062 575.570312 C 579.664062 574.9375 580.164062 574.4375 580.796875 574.4375 L 596.96875 574.4375 C 597.597656 574.4375 598.101562 574.9375 598.101562 575.570312 C 598.101562 576.199219 597.597656 576.699219 596.96875 576.699219 Z M 564.640625 576.441406 C 564.605469 576.441406 564.574219 576.441406 564.542969 576.441406 C 559.09375 576.003906 553.675781 575.019531 548.433594 573.53125 C 547.835938 573.351562 547.480469 572.738281 547.65625 572.125 C 547.835938 571.507812 548.449219 571.167969 549.066406 571.347656 C 554.160156 572.804688 559.414062 573.757812 564.71875 574.179688 C 565.351562 574.226562 565.804688 574.777344 565.753906 575.390625 C 565.707031 575.988281 565.222656 576.441406 564.640625 576.441406 Z M 881.59375 572.496094 C 881.121094 572.496094 880.671875 572.203125 880.523438 571.71875 C 880.332031 571.121094 880.636719 570.492188 881.234375 570.28125 C 886.265625 568.597656 891.132812 566.382812 895.742188 563.714844 C 896.277344 563.40625 896.972656 563.585938 897.296875 564.132812 C 897.617188 564.683594 897.425781 565.363281 896.890625 565.6875 C 892.167969 568.421875 887.140625 570.699219 881.980469 572.429688 C 881.835938 572.464844 881.707031 572.496094 881.59375 572.496094 Z M 533.765625 567.578125 C 533.585938 567.578125 533.410156 567.53125 533.246094 567.449219 C 528.414062 564.925781 523.804688 561.917969 519.550781 558.472656 C 519.066406 558.085938 518.984375 557.375 519.386719 556.890625 C 519.777344 556.402344 520.488281 556.324219 520.972656 556.726562 C 525.113281 560.074219 529.59375 563.003906 534.28125 565.445312 C 534.832031 565.734375 535.058594 566.414062 534.769531 566.964844 C 534.558594 567.351562 534.167969 567.578125 533.765625 567.578125 Z M 909.394531 556.402344 C 909.085938 556.402344 908.761719 556.273438 908.550781 556.015625 C 908.132812 555.546875 908.179688 554.835938 908.648438 554.414062 C 912.628906 550.90625 916.265625 546.976562 919.46875 542.738281 C 919.839844 542.238281 920.550781 542.140625 921.054688 542.511719 C 921.554688 542.882812 921.652344 543.59375 921.265625 544.097656 C 917.964844 548.445312 914.230469 552.472656 910.136719 556.097656 C 909.925781 556.308594 909.652344 556.402344 909.394531 556.402344 Z M 508.761719 547.394531 C 508.4375 547.394531 508.117188 547.25 507.890625 546.992188 C 504.394531 542.785156 501.324219 538.226562 498.734375 533.421875 C 498.445312 532.871094 498.636719 532.175781 499.1875 531.886719 C 499.738281 531.59375 500.433594 531.789062 500.722656 532.339844 C 503.230469 537.011719 506.238281 541.445312 509.621094 545.535156 C 510.023438 546.019531 509.960938 546.734375 509.472656 547.136719 C 509.28125 547.300781 509.019531 547.394531 508.761719 547.394531 Z M 928.785156 530.785156 C 928.621094 530.785156 928.445312 530.753906 928.300781 530.671875 C 927.734375 530.398438 927.488281 529.71875 927.765625 529.167969 C 930.078125 524.398438 931.90625 519.351562 933.199219 514.210938 C 933.34375 513.59375 933.976562 513.238281 934.574219 513.382812 C 935.1875 513.546875 935.542969 514.160156 935.398438 514.757812 C 934.054688 520.046875 932.179688 525.222656 929.804688 530.140625 C 929.609375 530.558594 929.203125 530.785156 928.785156 530.785156 Z M 493.542969 519.09375 C 493.058594 519.09375 492.605469 518.769531 492.460938 518.285156 C 490.890625 513.078125 489.824219 507.660156 489.324219 502.226562 C 489.257812 501.609375 489.726562 501.046875 490.339844 500.996094 C 490.957031 500.914062 491.523438 501.402344 491.570312 502.015625 C 492.054688 507.304688 493.089844 512.558594 494.628906 517.636719 C 494.804688 518.238281 494.464844 518.867188 493.867188 519.046875 C 493.769531 519.09375 493.65625 519.09375 493.542969 519.09375 Z M 936.691406 499.652344 C 936.675781 499.652344 936.660156 499.652344 936.628906 499.652344 C 935.996094 499.621094 935.527344 499.089844 935.542969 498.472656 C 935.609375 497.164062 935.640625 495.835938 935.640625 494.511719 L 935.640625 482.367188 C 935.640625 481.734375 936.140625 481.234375 936.773438 481.234375 C 937.402344 481.234375 937.90625 481.734375 937.90625 482.367188 L 937.90625 494.511719 C 937.90625 495.871094 937.875 497.226562 937.808594 498.585938 C 937.792969 499.183594 937.289062 499.652344 936.691406 499.652344 Z M 490.097656 487.105469 C 489.46875 487.105469 488.96875 486.601562 488.96875 485.972656 L 488.96875 469.800781 C 488.96875 469.167969 489.46875 468.667969 490.097656 468.667969 C 490.730469 468.667969 491.230469 469.167969 491.230469 469.800781 L 491.230469 485.972656 C 491.230469 486.601562 490.730469 487.105469 490.097656 487.105469 Z M 936.789062 467.308594 C 936.160156 467.308594 935.65625 466.808594 935.65625 466.175781 L 935.65625 450.003906 C 935.65625 449.375 936.160156 448.871094 936.789062 448.871094 C 937.421875 448.871094 937.921875 449.375 937.921875 450.003906 L 937.921875 466.175781 C 937.921875 466.808594 937.421875 467.308594 936.789062 467.308594 Z M 490.097656 454.757812 C 489.46875 454.757812 488.96875 454.257812 488.96875 453.625 L 488.96875 437.453125 C 488.96875 436.824219 489.46875 436.320312 490.097656 436.320312 C 490.730469 436.320312 491.230469 436.824219 491.230469 437.453125 L 491.230469 453.625 C 491.230469 454.257812 490.730469 454.757812 490.097656 454.757812 Z M 936.789062 434.964844 C 936.160156 434.964844 935.65625 434.460938 935.65625 433.832031 L 935.65625 417.660156 C 935.65625 417.027344 936.160156 416.527344 936.789062 416.527344 C 937.421875 416.527344 937.921875 417.027344 937.921875 417.660156 L 937.921875 433.832031 C 937.921875 434.460938 937.421875 434.964844 936.789062 434.964844 Z M 490.097656 422.414062 C 489.46875 422.414062 488.96875 421.910156 488.96875 421.28125 L 488.96875 405.109375 C 488.96875 404.476562 489.46875 403.976562 490.097656 403.976562 C 490.730469 403.976562 491.230469 404.476562 491.230469 405.109375 L 491.230469 421.28125 C 491.230469 421.910156 490.730469 422.414062 490.097656 422.414062 Z M 936.789062 402.617188 C 936.160156 402.617188 935.65625 402.117188 935.65625 401.484375 L 935.65625 385.3125 C 935.65625 384.683594 936.160156 384.179688 936.789062 384.179688 C 937.421875 384.179688 937.921875 384.683594 937.921875 385.3125 L 937.921875 401.484375 C 937.921875 402.117188 937.421875 402.617188 936.789062 402.617188 Z M 490.097656 390.066406 C 489.46875 390.066406 488.96875 389.566406 488.96875 388.9375 L 488.96875 372.761719 C 488.96875 372.132812 489.46875 371.632812 490.097656 371.632812 C 490.730469 371.632812 491.230469 372.132812 491.230469 372.761719 L 491.230469 388.9375 C 491.230469 389.566406 490.730469 390.066406 490.097656 390.066406 Z M 936.789062 370.273438 C 936.160156 370.273438 935.65625 369.769531 935.65625 369.140625 L 935.65625 352.96875 C 935.65625 352.335938 936.160156 351.835938 936.789062 351.835938 C 937.421875 351.835938 937.921875 352.335938 937.921875 352.96875 L 937.921875 369.140625 C 937.921875 369.769531 937.421875 370.273438 936.789062 370.273438 Z M 490.097656 357.722656 C 489.46875 357.722656 488.96875 357.222656 488.96875 356.589844 L 488.96875 340.417969 C 488.96875 339.785156 489.46875 339.285156 490.097656 339.285156 C 490.730469 339.285156 491.230469 339.785156 491.230469 340.417969 L 491.230469 356.589844 C 491.230469 357.222656 490.730469 357.722656 490.097656 357.722656 Z M 936.789062 337.925781 C 936.160156 337.925781 935.65625 337.425781 935.65625 336.792969 L 935.65625 320.621094 C 935.65625 319.992188 936.160156 319.488281 936.789062 319.488281 C 937.421875 319.488281 937.921875 319.992188 937.921875 320.621094 L 937.921875 336.792969 C 937.921875 337.425781 937.421875 337.925781 936.789062 337.925781 Z M 490.097656 325.375 C 489.46875 325.375 488.96875 324.875 488.96875 324.246094 L 488.96875 308.070312 C 488.96875 307.441406 489.46875 306.941406 490.097656 306.941406 C 490.730469 306.941406 491.230469 307.441406 491.230469 308.070312 L 491.230469 324.246094 C 491.230469 324.875 490.730469 325.375 490.097656 325.375 Z M 936.789062 305.582031 C 936.160156 305.582031 935.65625 305.082031 935.65625 304.449219 L 935.65625 288.277344 C 935.65625 287.644531 936.160156 287.144531 936.789062 287.144531 C 937.421875 287.144531 937.921875 287.644531 937.921875 288.277344 L 937.921875 304.449219 C 937.921875 305.082031 937.421875 305.582031 936.789062 305.582031 Z M 490.097656 293.03125 C 489.46875 293.03125 488.96875 292.53125 488.96875 291.898438 L 488.96875 275.726562 C 488.96875 275.097656 489.46875 274.59375 490.097656 274.59375 C 490.730469 274.59375 491.230469 275.097656 491.230469 275.726562 L 491.230469 291.898438 C 491.230469 292.53125 490.730469 293.03125 490.097656 293.03125 Z M 936.789062 273.234375 C 936.160156 273.234375 935.65625 272.734375 935.65625 272.105469 L 935.65625 255.929688 C 935.65625 255.300781 936.160156 254.800781 936.789062 254.800781 C 937.421875 254.800781 937.921875 255.300781 937.921875 255.929688 L 937.921875 272.105469 C 937.921875 272.734375 937.421875 273.234375 936.789062 273.234375 Z M 490.097656 260.6875 C 489.46875 260.6875 488.96875 260.183594 488.96875 259.554688 L 488.96875 252.46875 C 488.96875 249.398438 489.144531 246.308594 489.46875 243.269531 C 489.53125 242.652344 490.097656 242.199219 490.714844 242.265625 C 491.328125 242.328125 491.78125 242.894531 491.714844 243.511719 C 491.394531 246.453125 491.214844 249.476562 491.214844 252.453125 L 491.214844 259.539062 C 491.230469 260.183594 490.730469 260.6875 490.097656 260.6875 Z M 935.804688 240.957031 C 935.253906 240.957031 934.769531 240.550781 934.6875 240 C 933.863281 234.761719 932.503906 229.570312 930.660156 224.605469 C 930.449219 224.023438 930.742188 223.359375 931.324219 223.148438 C 931.90625 222.9375 932.550781 223.230469 932.777344 223.8125 C 934.6875 228.921875 936.078125 234.261719 936.917969 239.644531 C 937.015625 240.261719 936.59375 240.84375 935.980469 240.9375 C 935.933594 240.957031 935.867188 240.957031 935.804688 240.957031 Z M 493.980469 228.746094 C 493.867188 228.746094 493.753906 228.730469 493.640625 228.695312 C 493.042969 228.503906 492.71875 227.871094 492.914062 227.273438 C 494.578125 222.082031 496.792969 217.035156 499.464844 212.265625 C 499.769531 211.714844 500.464844 211.519531 501 211.828125 C 501.550781 212.136719 501.742188 212.832031 501.4375 213.363281 C 498.832031 218.007812 496.679688 222.90625 495.0625 227.953125 C 494.902344 228.4375 494.464844 228.746094 493.980469 228.746094 Z M 924.613281 210.839844 C 924.238281 210.839844 923.867188 210.648438 923.640625 210.308594 C 920.84375 205.8125 917.578125 201.558594 913.9375 197.691406 C 913.515625 197.242188 913.53125 196.527344 913.984375 196.09375 C 914.4375 195.65625 915.152344 195.6875 915.585938 196.140625 C 919.339844 200.121094 922.6875 204.484375 925.566406 209.109375 C 925.890625 209.644531 925.726562 210.339844 925.210938 210.664062 C 925.015625 210.792969 924.820312 210.839844 924.613281 210.839844 Z M 509.714844 200.734375 C 509.457031 200.734375 509.199219 200.636719 508.972656 200.457031 C 508.503906 200.054688 508.4375 199.34375 508.859375 198.859375 C 512.417969 194.71875 516.414062 190.917969 520.714844 187.570312 C 521.199219 187.179688 521.910156 187.277344 522.300781 187.761719 C 522.6875 188.265625 522.589844 188.976562 522.105469 189.347656 C 517.917969 192.613281 514.035156 196.300781 510.574219 200.328125 C 510.347656 200.605469 510.023438 200.734375 509.714844 200.734375 Z M 902.585938 187.457031 C 902.359375 187.457031 902.132812 187.390625 901.9375 187.246094 C 897.601562 184.171875 892.945312 181.519531 888.109375 179.371094 C 887.542969 179.109375 887.285156 178.449219 887.527344 177.882812 C 887.785156 177.316406 888.449219 177.058594 889.015625 177.300781 C 893.996094 179.515625 898.785156 182.230469 903.246094 185.402344 C 903.765625 185.757812 903.878906 186.46875 903.523438 186.988281 C 903.296875 187.292969 902.941406 187.457031 902.585938 187.457031 Z M 535.058594 181.003906 C 534.640625 181.003906 534.25 180.777344 534.039062 180.371094 C 533.765625 179.804688 533.992188 179.128906 534.542969 178.851562 C 539.425781 176.410156 544.585938 174.46875 549.855469 173.0625 C 550.457031 172.902344 551.085938 173.257812 551.25 173.871094 C 551.410156 174.46875 551.054688 175.101562 550.441406 175.261719 C 545.3125 176.636719 540.300781 178.527344 535.5625 180.890625 C 535.398438 180.972656 535.238281 181.003906 535.058594 181.003906 Z M 873.230469 174.4375 C 873.148438 174.4375 873.070312 174.421875 872.988281 174.40625 C 867.828125 173.273438 862.507812 172.640625 857.1875 172.542969 C 856.554688 172.527344 856.070312 172.011719 856.070312 171.398438 C 856.085938 170.78125 856.589844 170.28125 857.203125 170.28125 C 857.203125 170.28125 857.21875 170.28125 857.21875 170.28125 C 862.703125 170.378906 868.167969 171.023438 873.472656 172.1875 C 874.089844 172.316406 874.476562 172.933594 874.332031 173.53125 C 874.21875 174.082031 873.75 174.4375 873.230469 174.4375 Z M 566.078125 172.707031 C 565.480469 172.707031 564.980469 172.238281 564.945312 171.640625 C 564.914062 171.007812 565.382812 170.476562 566.015625 170.441406 C 567.710938 170.34375 569.425781 170.28125 571.125 170.28125 C 571.140625 170.28125 571.15625 170.28125 571.15625 170.28125 L 582.25 170.28125 C 582.882812 170.28125 583.382812 170.78125 583.382812 171.414062 C 583.382812 172.042969 582.882812 172.542969 582.25 172.542969 L 571.15625 172.542969 C 571.140625 172.542969 571.140625 172.542969 571.125 172.542969 C 569.476562 172.542969 567.808594 172.59375 566.160156 172.691406 C 566.128906 172.707031 566.109375 172.707031 566.078125 172.707031 Z M 841.015625 172.542969 L 824.84375 172.542969 C 824.210938 172.542969 823.710938 172.042969 823.710938 171.414062 C 823.710938 170.78125 824.210938 170.28125 824.84375 170.28125 L 841.015625 170.28125 C 841.644531 170.28125 842.148438 170.78125 842.148438 171.414062 C 842.148438 172.042969 841.644531 172.542969 841.015625 172.542969 Z M 808.667969 172.542969 L 792.496094 172.542969 C 791.867188 172.542969 791.363281 172.042969 791.363281 171.414062 C 791.363281 170.78125 791.867188 170.28125 792.496094 170.28125 L 808.667969 170.28125 C 809.300781 170.28125 809.800781 170.78125 809.800781 171.414062 C 809.800781 172.042969 809.300781 172.542969 808.667969 172.542969 Z M 776.324219 172.542969 L 760.152344 172.542969 C 759.519531 172.542969 759.019531 172.042969 759.019531 171.414062 C 759.019531 170.78125 759.519531 170.28125 760.152344 170.28125 L 776.324219 170.28125 C 776.953125 170.28125 777.457031 170.78125 777.457031 171.414062 C 777.457031 172.042969 776.953125 172.542969 776.324219 172.542969 Z M 743.976562 172.542969 L 727.804688 172.542969 C 727.175781 172.542969 726.671875 172.042969 726.671875 171.414062 C 726.671875 170.78125 727.175781 170.28125 727.804688 170.28125 L 743.976562 170.28125 C 744.609375 170.28125 745.109375 170.78125 745.109375 171.414062 C 745.109375 172.042969 744.609375 172.542969 743.976562 172.542969 Z M 711.632812 172.542969 L 695.460938 172.542969 C 694.828125 172.542969 694.328125 172.042969 694.328125 171.414062 C 694.328125 170.78125 694.828125 170.28125 695.460938 170.28125 L 711.632812 170.28125 C 712.265625 170.28125 712.765625 170.78125 712.765625 171.414062 C 712.765625 172.042969 712.265625 172.542969 711.632812 172.542969 Z M 679.289062 172.542969 L 663.113281 172.542969 C 662.484375 172.542969 661.984375 172.042969 661.984375 171.414062 C 661.984375 170.78125 662.484375 170.28125 663.113281 170.28125 L 679.289062 170.28125 C 679.917969 170.28125 680.417969 170.78125 680.417969 171.414062 C 680.417969 172.042969 679.917969 172.542969 679.289062 172.542969 Z M 646.941406 172.542969 L 630.769531 172.542969 C 630.136719 172.542969 629.636719 172.042969 629.636719 171.414062 C 629.636719 170.78125 630.136719 170.28125 630.769531 170.28125 L 646.941406 170.28125 C 647.574219 170.28125 648.074219 170.78125 648.074219 171.414062 C 648.074219 172.042969 647.574219 172.542969 646.941406 172.542969 Z M 614.597656 172.542969 L 598.425781 172.542969 C 597.792969 172.542969 597.292969 172.042969 597.292969 171.414062 C 597.292969 170.78125 597.792969 170.28125 598.425781 170.28125 L 614.597656 170.28125 C 615.226562 170.28125 615.730469 170.78125 615.730469 171.414062 C 615.730469 172.042969 615.226562 172.542969 614.597656 172.542969 Z M 614.597656 172.542969 " fill-opacity="1" fill-rule="nonzero"/><g clip-path="url(#b10677839f)"><path fill="#ffffff" d="M 855.730469 577.832031 L 839.558594 577.832031 C 838.3125 577.832031 837.296875 576.8125 837.296875 575.570312 C 837.296875 574.324219 838.3125 573.304688 839.558594 573.304688 L 855.730469 573.304688 C 859.03125 573.304688 862.332031 573.09375 865.566406 572.691406 C 866.808594 572.5625 867.941406 573.433594 868.085938 574.664062 C 868.234375 575.890625 867.359375 577.039062 866.113281 577.1875 C 862.703125 577.621094 859.207031 577.832031 855.730469 577.832031 Z M 839.558594 575.570312 L 855.730469 575.570312 C 859.113281 575.570312 862.523438 575.359375 865.855469 574.9375 C 862.523438 575.359375 859.128906 575.570312 855.730469 575.570312 Z M 823.386719 577.832031 L 807.214844 577.832031 C 805.96875 577.832031 804.949219 576.8125 804.949219 575.570312 C 804.949219 574.324219 805.96875 573.304688 807.214844 573.304688 L 823.386719 573.304688 C 824.632812 573.304688 825.652344 574.324219 825.652344 575.570312 C 825.652344 576.8125 824.632812 577.832031 823.386719 577.832031 Z M 823.386719 575.570312 L 823.386719 576.699219 Z M 791.039062 577.832031 L 774.867188 577.832031 C 773.621094 577.832031 772.605469 576.8125 772.605469 575.570312 C 772.605469 574.324219 773.621094 573.304688 774.867188 573.304688 L 791.039062 573.304688 C 792.285156 573.304688 793.304688 574.324219 793.304688 575.570312 C 793.304688 576.8125 792.285156 577.832031 791.039062 577.832031 Z M 791.039062 575.570312 L 791.039062 576.699219 Z M 758.695312 577.832031 L 742.523438 577.832031 C 741.277344 577.832031 740.257812 576.8125 740.257812 575.570312 C 740.257812 574.324219 741.277344 573.304688 742.523438 573.304688 L 758.695312 573.304688 C 759.941406 573.304688 760.960938 574.324219 760.960938 575.570312 C 760.960938 576.8125 759.941406 577.832031 758.695312 577.832031 Z M 758.695312 575.570312 L 758.695312 576.699219 Z M 726.351562 577.832031 L 710.175781 577.832031 C 708.933594 577.832031 707.914062 576.8125 707.914062 575.570312 C 707.914062 574.324219 708.933594 573.304688 710.175781 573.304688 L 726.351562 573.304688 C 727.59375 573.304688 728.613281 574.324219 728.613281 575.570312 C 728.613281 576.8125 727.59375 577.832031 726.351562 577.832031 Z M 726.351562 575.570312 L 726.351562 576.699219 Z M 694.003906 577.832031 L 677.832031 577.832031 C 676.585938 577.832031 675.566406 576.8125 675.566406 575.570312 C 675.566406 574.324219 676.585938 573.304688 677.832031 573.304688 L 694.003906 573.304688 C 695.25 573.304688 696.269531 574.324219 696.269531 575.570312 C 696.269531 576.8125 695.25 577.832031 694.003906 577.832031 Z M 694.003906 575.570312 L 694.003906 576.699219 Z M 661.660156 577.832031 L 645.488281 577.832031 C 644.242188 577.832031 643.222656 576.8125 643.222656 575.570312 C 643.222656 574.324219 644.242188 573.304688 645.488281 573.304688 L 661.660156 573.304688 C 662.90625 573.304688 663.921875 574.324219 663.921875 575.570312 C 663.921875 576.8125 662.90625 577.832031 661.660156 577.832031 Z M 661.660156 575.570312 L 661.660156 576.699219 Z M 629.3125 577.832031 L 613.140625 577.832031 C 611.894531 577.832031 610.878906 576.8125 610.878906 575.570312 C 610.878906 574.324219 611.894531 573.304688 613.140625 573.304688 L 629.3125 573.304688 C 630.558594 573.304688 631.578125 574.324219 631.578125 575.570312 C 631.578125 576.8125 630.558594 577.832031 629.3125 577.832031 Z M 629.3125 575.570312 L 629.3125 576.699219 Z M 596.96875 577.832031 L 580.796875 577.832031 C 579.550781 577.832031 578.53125 576.8125 578.53125 575.570312 C 578.53125 574.324219 579.550781 573.304688 580.796875 573.304688 L 596.96875 573.304688 C 598.214844 573.304688 599.234375 574.324219 599.234375 575.570312 C 599.234375 576.8125 598.214844 577.832031 596.96875 577.832031 Z M 596.96875 575.570312 L 596.96875 576.699219 Z M 564.640625 577.574219 L 564.460938 577.574219 C 558.929688 577.136719 553.429688 576.136719 548.125 574.613281 C 546.929688 574.273438 546.234375 573.011719 546.574219 571.816406 C 546.914062 570.621094 548.175781 569.925781 549.371094 570.265625 C 554.386719 571.703125 559.578125 572.640625 564.816406 573.0625 C 566.0625 573.160156 567 574.257812 566.886719 575.503906 C 566.789062 576.652344 565.804688 577.574219 564.640625 577.574219 Z M 564.640625 575.308594 L 564.640625 576.441406 Z M 548.757812 572.429688 C 550.828125 573.03125 552.929688 573.53125 555.046875 573.96875 C 552.929688 573.53125 550.828125 573.03125 548.757812 572.429688 Z M 881.59375 573.628906 C 880.621094 573.628906 879.75 573.011719 879.441406 572.074219 C 879.246094 571.507812 879.296875 570.894531 879.554688 570.34375 C 879.8125 569.796875 880.28125 569.390625 880.863281 569.195312 C 885.8125 567.53125 890.632812 565.347656 895.160156 562.726562 C 895.679688 562.421875 896.292969 562.339844 896.875 562.5 C 897.457031 562.664062 897.941406 563.035156 898.25 563.550781 C 898.558594 564.070312 898.636719 564.683594 898.476562 565.265625 C 898.316406 565.847656 897.941406 566.335938 897.425781 566.640625 C 892.621094 569.421875 887.542969 571.71875 882.304688 573.484375 C 882.078125 573.578125 881.835938 573.628906 881.59375 573.628906 Z M 886.6875 569.4375 C 885.003906 570.136719 883.304688 570.765625 881.574219 571.347656 L 881.574219 572.480469 L 881.574219 571.347656 C 883.304688 570.78125 885.019531 570.136719 886.6875 569.4375 Z M 533.765625 568.710938 C 533.394531 568.710938 533.039062 568.613281 532.714844 568.453125 C 527.8125 565.898438 523.15625 562.839844 518.839844 559.363281 C 518.367188 558.992188 518.078125 558.441406 518.011719 557.84375 C 517.949219 557.246094 518.125 556.648438 518.5 556.175781 C 518.886719 555.707031 519.421875 555.417969 520.019531 555.351562 C 520.617188 555.289062 521.214844 555.464844 521.683594 555.839844 C 525.761719 559.136719 530.175781 562.015625 534.816406 564.441406 C 535.351562 564.71875 535.753906 565.1875 535.933594 565.769531 C 536.109375 566.351562 536.0625 566.964844 535.785156 567.5 C 535.382812 568.242188 534.605469 568.710938 533.765625 568.710938 Z M 531.5 565.21875 C 532.246094 565.640625 532.988281 566.042969 533.75 566.429688 C 533.003906 566.042969 532.246094 565.640625 531.5 565.21875 Z M 909.394531 557.535156 C 908.746094 557.535156 908.132812 557.261719 907.695312 556.777344 C 906.871094 555.839844 906.949219 554.414062 907.890625 553.574219 C 911.820312 550.113281 915.410156 546.230469 918.5625 542.058594 C 919.324219 541.074219 920.746094 540.863281 921.734375 541.621094 C 922.734375 542.382812 922.929688 543.804688 922.167969 544.792969 C 918.835938 549.191406 915.039062 553.300781 910.878906 556.953125 C 910.476562 557.324219 909.941406 557.535156 909.394531 557.535156 Z M 913.097656 551.777344 C 911.898438 552.976562 910.65625 554.140625 909.394531 555.273438 C 910.671875 554.140625 911.898438 552.976562 913.097656 551.777344 Z M 508.761719 548.527344 C 508.082031 548.527344 507.453125 548.238281 507.015625 547.703125 C 503.472656 543.433594 500.351562 538.808594 497.734375 533.957031 C 497.441406 533.421875 497.375 532.808594 497.554688 532.226562 C 497.734375 531.644531 498.121094 531.175781 498.65625 530.882812 C 499.1875 530.59375 499.804688 530.527344 500.386719 530.707031 C 500.96875 530.882812 501.4375 531.273438 501.726562 531.804688 C 504.203125 536.414062 507.160156 540.78125 510.507812 544.808594 C 511.300781 545.761719 511.171875 547.203125 510.21875 547.996094 C 509.796875 548.332031 509.296875 548.527344 508.761719 548.527344 Z M 499.738281 532.871094 C 500.417969 534.152344 501.144531 535.410156 501.90625 536.640625 C 501.144531 535.410156 500.417969 534.152344 499.738281 532.871094 Z M 928.785156 531.917969 C 928.445312 531.917969 928.105469 531.835938 927.796875 531.691406 C 927.265625 531.433594 926.84375 530.964844 926.648438 530.398438 C 926.457031 529.832031 926.488281 529.21875 926.746094 528.667969 C 929.011719 523.960938 930.820312 518.996094 932.117188 513.917969 C 932.421875 512.707031 933.652344 511.976562 934.863281 512.285156 C 936.078125 512.59375 936.820312 513.820312 936.515625 515.035156 C 935.15625 520.402344 933.246094 525.660156 930.839844 530.625 C 930.449219 531.417969 929.65625 531.917969 928.785156 531.917969 Z M 932.292969 521.195312 C 931.289062 524.089844 930.109375 526.921875 928.785156 529.671875 C 930.109375 526.90625 931.289062 524.074219 932.292969 521.195312 Z M 493.542969 520.242188 C 492.558594 520.242188 491.667969 519.578125 491.375 518.625 C 489.777344 513.335938 488.707031 507.855469 488.191406 502.339844 C 488.125 501.742188 488.320312 501.140625 488.707031 500.6875 C 489.097656 500.234375 489.644531 499.929688 490.246094 499.878906 C 490.792969 499.800781 491.375 499.976562 491.863281 500.347656 C 492.347656 500.738281 492.65625 501.304688 492.71875 501.917969 C 493.203125 507.125 494.222656 512.316406 495.726562 517.316406 C 495.90625 517.898438 495.839844 518.511719 495.550781 519.046875 C 495.257812 519.578125 494.789062 519.96875 494.207031 520.144531 C 493.980469 520.195312 493.769531 520.242188 493.542969 520.242188 Z M 936.691406 500.785156 L 936.59375 500.785156 C 935.332031 500.722656 934.378906 499.652344 934.445312 498.410156 C 934.507812 497.113281 934.542969 495.804688 934.542969 494.496094 L 934.542969 482.347656 C 934.542969 481.105469 935.558594 480.085938 936.804688 480.085938 C 938.050781 480.085938 939.070312 481.105469 939.070312 482.347656 L 939.070312 494.496094 C 939.070312 495.886719 939.039062 497.261719 938.972656 498.617188 C 938.890625 499.847656 937.90625 500.785156 936.691406 500.785156 Z M 936.691406 498.523438 L 936.691406 499.652344 Z M 936.789062 482.347656 L 936.789062 494.496094 C 936.789062 495.546875 936.773438 496.597656 936.726562 497.648438 C 936.773438 496.597656 936.789062 495.546875 936.789062 494.496094 Z M 490.097656 488.234375 C 488.855469 488.234375 487.835938 487.21875 487.835938 485.972656 L 487.835938 469.800781 C 487.835938 468.554688 488.855469 467.535156 490.097656 467.535156 C 491.34375 467.535156 492.363281 468.554688 492.363281 469.800781 L 492.363281 485.972656 C 492.363281 487.21875 491.34375 488.234375 490.097656 488.234375 Z M 490.097656 485.972656 L 490.097656 487.105469 Z M 936.789062 468.441406 C 935.542969 468.441406 934.523438 467.421875 934.523438 466.175781 L 934.523438 450.003906 C 934.523438 448.757812 935.542969 447.738281 936.789062 447.738281 C 938.035156 447.738281 939.054688 448.757812 939.054688 450.003906 L 939.054688 466.175781 C 939.054688 467.4375 938.035156 468.441406 936.789062 468.441406 Z M 936.789062 466.175781 L 936.789062 467.308594 Z M 490.097656 455.890625 C 488.855469 455.890625 487.835938 454.871094 487.835938 453.625 L 487.835938 437.453125 C 487.835938 436.207031 488.855469 435.191406 490.097656 435.191406 C 491.34375 435.191406 492.363281 436.207031 492.363281 437.453125 L 492.363281 453.625 C 492.363281 454.871094 491.34375 455.890625 490.097656 455.890625 Z M 490.097656 453.625 L 490.097656 454.757812 Z M 936.789062 436.09375 C 935.542969 436.09375 934.523438 435.078125 934.523438 433.832031 L 934.523438 417.660156 C 934.523438 416.414062 935.542969 415.394531 936.789062 415.394531 C 938.035156 415.394531 939.054688 416.414062 939.054688 417.660156 L 939.054688 433.832031 C 939.054688 435.09375 938.035156 436.09375 936.789062 436.09375 Z M 936.789062 433.832031 L 936.789062 434.964844 Z M 490.097656 423.546875 C 488.855469 423.546875 487.835938 422.527344 487.835938 421.28125 L 487.835938 405.109375 C 487.835938 403.863281 488.855469 402.84375 490.097656 402.84375 C 491.34375 402.84375 492.363281 403.863281 492.363281 405.109375 L 492.363281 421.28125 C 492.363281 422.527344 491.34375 423.546875 490.097656 423.546875 Z M 490.097656 421.28125 L 490.097656 422.414062 Z M 936.789062 403.75 C 935.542969 403.75 934.523438 402.730469 934.523438 401.484375 L 934.523438 385.3125 C 934.523438 384.066406 935.542969 383.050781 936.789062 383.050781 C 938.035156 383.050781 939.054688 384.066406 939.054688 385.3125 L 939.054688 401.484375 C 939.054688 402.746094 938.035156 403.75 936.789062 403.75 Z M 936.789062 401.484375 L 936.789062 402.617188 Z M 490.097656 391.199219 C 488.855469 391.199219 487.835938 390.179688 487.835938 388.9375 L 487.835938 372.761719 C 487.835938 371.519531 488.855469 370.5 490.097656 370.5 C 491.34375 370.5 492.363281 371.519531 492.363281 372.761719 L 492.363281 388.9375 C 492.363281 390.179688 491.34375 391.199219 490.097656 391.199219 Z M 490.097656 388.9375 L 490.097656 390.066406 Z M 936.789062 371.40625 C 935.542969 371.40625 934.523438 370.386719 934.523438 369.140625 L 934.523438 352.96875 C 934.523438 351.722656 935.542969 350.703125 936.789062 350.703125 C 938.035156 350.703125 939.054688 351.722656 939.054688 352.96875 L 939.054688 369.140625 C 939.054688 370.402344 938.035156 371.40625 936.789062 371.40625 Z M 936.789062 369.140625 L 936.789062 370.273438 Z M 490.097656 358.855469 C 488.855469 358.855469 487.835938 357.835938 487.835938 356.589844 L 487.835938 340.417969 C 487.835938 339.171875 488.855469 338.152344 490.097656 338.152344 C 491.34375 338.152344 492.363281 339.171875 492.363281 340.417969 L 492.363281 356.589844 C 492.363281 357.835938 491.34375 358.855469 490.097656 358.855469 Z M 490.097656 356.589844 L 490.097656 357.722656 Z M 936.789062 339.058594 C 935.542969 339.058594 934.523438 338.039062 934.523438 336.792969 L 934.523438 320.621094 C 934.523438 319.375 935.542969 318.359375 936.789062 318.359375 C 938.035156 318.359375 939.054688 319.375 939.054688 320.621094 L 939.054688 336.792969 C 939.054688 338.054688 938.035156 339.058594 936.789062 339.058594 Z M 936.789062 336.792969 L 936.789062 337.925781 Z M 490.097656 326.507812 C 488.855469 326.507812 487.835938 325.488281 487.835938 324.246094 L 487.835938 308.070312 C 487.835938 306.828125 488.855469 305.808594 490.097656 305.808594 C 491.34375 305.808594 492.363281 306.828125 492.363281 308.070312 L 492.363281 324.246094 C 492.363281 325.488281 491.34375 326.507812 490.097656 326.507812 Z M 490.097656 324.246094 L 490.097656 325.375 Z M 936.789062 306.714844 C 935.542969 306.714844 934.523438 305.695312 934.523438 304.449219 L 934.523438 288.277344 C 934.523438 287.03125 935.542969 286.011719 936.789062 286.011719 C 938.035156 286.011719 939.054688 287.03125 939.054688 288.277344 L 939.054688 304.449219 C 939.054688 305.710938 938.035156 306.714844 936.789062 306.714844 Z M 936.789062 304.449219 L 936.789062 305.582031 Z M 490.097656 294.164062 C 488.855469 294.164062 487.835938 293.144531 487.835938 291.898438 L 487.835938 275.726562 C 487.835938 274.480469 488.855469 273.460938 490.097656 273.460938 C 491.34375 273.460938 492.363281 274.480469 492.363281 275.726562 L 492.363281 291.898438 C 492.363281 293.144531 491.34375 294.164062 490.097656 294.164062 Z M 490.097656 291.898438 L 490.097656 293.03125 Z M 936.789062 274.367188 C 935.542969 274.367188 934.523438 273.347656 934.523438 272.105469 L 934.523438 255.929688 C 934.523438 254.6875 935.542969 253.667969 936.789062 253.667969 C 938.035156 253.667969 939.054688 254.6875 939.054688 255.929688 L 939.054688 272.105469 C 939.054688 273.367188 938.035156 274.367188 936.789062 274.367188 Z M 936.789062 272.105469 L 936.789062 273.234375 Z M 490.097656 261.816406 C 488.855469 261.816406 487.835938 260.800781 487.835938 259.554688 L 487.835938 252.46875 C 487.835938 249.363281 488.011719 246.226562 488.351562 243.15625 C 488.496094 241.925781 489.613281 241.035156 490.84375 241.148438 C 492.089844 241.296875 492.992188 242.410156 492.847656 243.65625 C 492.523438 246.566406 492.363281 249.527344 492.363281 252.46875 L 492.363281 259.554688 C 492.363281 260.800781 491.34375 261.816406 490.097656 261.816406 Z M 490.097656 259.554688 L 490.097656 260.6875 Z M 490.601562 243.398438 C 490.261719 246.390625 490.097656 249.445312 490.097656 252.46875 L 490.097656 257.046875 L 490.097656 252.46875 C 490.097656 249.445312 490.261719 246.390625 490.601562 243.398438 Z M 935.804688 242.085938 C 934.6875 242.085938 933.734375 241.277344 933.570312 240.179688 C 932.761719 235.019531 931.421875 229.910156 929.59375 225.007812 C 929.15625 223.84375 929.753906 222.535156 930.917969 222.097656 C 932.097656 221.660156 933.394531 222.257812 933.828125 223.425781 C 935.753906 228.617188 937.175781 234.015625 938.035156 239.484375 C 938.230469 240.710938 937.386719 241.878906 936.140625 242.070312 C 936.046875 242.070312 935.933594 242.085938 935.804688 242.085938 Z M 931.726562 224.199219 C 932.777344 227.03125 933.667969 229.910156 934.394531 232.835938 C 933.667969 229.910156 932.777344 227.03125 931.726562 224.199219 Z M 493.980469 229.878906 C 493.738281 229.878906 493.511719 229.84375 493.285156 229.765625 C 492.105469 229.375 491.441406 228.097656 491.828125 226.917969 C 493.527344 221.660156 495.757812 216.535156 498.476562 211.714844 C 499.089844 210.632812 500.480469 210.242188 501.566406 210.839844 C 502.097656 211.132812 502.472656 211.617188 502.632812 212.199219 C 502.792969 212.78125 502.730469 213.398438 502.421875 213.914062 C 499.851562 218.476562 497.75 223.328125 496.148438 228.292969 C 495.839844 229.246094 494.96875 229.878906 493.980469 229.878906 Z M 495.644531 222.9375 C 495.046875 224.476562 494.480469 226.042969 493.980469 227.613281 C 494.480469 226.042969 495.046875 224.492188 495.644531 222.9375 Z M 924.613281 211.972656 C 923.820312 211.972656 923.105469 211.570312 922.6875 210.90625 C 919.921875 206.457031 916.703125 202.285156 913.113281 198.46875 C 912.253906 197.5625 912.304688 196.125 913.210938 195.265625 C 913.644531 194.847656 914.164062 194.636719 914.828125 194.652344 C 915.425781 194.667969 915.992188 194.929688 916.410156 195.363281 C 920.210938 199.390625 923.609375 203.824219 926.535156 208.511719 C 927.199219 209.582031 926.875 210.972656 925.808594 211.632812 C 925.453125 211.859375 925.03125 211.972656 924.613281 211.972656 Z M 914.761719 196.917969 C 915.394531 197.597656 916.023438 198.277344 916.636719 198.972656 C 916.023438 198.277344 915.394531 197.597656 914.761719 196.917969 Z M 509.714844 201.867188 C 509.183594 201.867188 508.648438 201.671875 508.246094 201.316406 C 507.792969 200.929688 507.515625 200.378906 507.46875 199.761719 C 507.421875 199.148438 507.613281 198.582031 508.019531 198.113281 C 511.625 193.925781 515.667969 190.074219 520.035156 186.679688 C 520.503906 186.308594 521.101562 186.144531 521.699219 186.210938 C 522.300781 186.292969 522.832031 186.582031 523.203125 187.066406 C 523.578125 187.535156 523.738281 188.136719 523.65625 188.734375 C 523.578125 189.332031 523.285156 189.867188 522.800781 190.238281 C 518.675781 193.457031 514.84375 197.09375 511.429688 201.058594 C 510.996094 201.574219 510.363281 201.867188 509.714844 201.867188 Z M 509.714844 199.601562 L 509.714844 200.734375 Z M 521.410156 188.476562 C 520.210938 189.398438 519.046875 190.367188 517.917969 191.355469 C 519.046875 190.367188 520.210938 189.398438 521.410156 188.476562 Z M 902.585938 188.589844 C 902.113281 188.589844 901.664062 188.441406 901.273438 188.167969 C 897.003906 185.144531 892.410156 182.523438 887.640625 180.40625 C 887.089844 180.160156 886.671875 179.710938 886.445312 179.144531 C 886.234375 178.578125 886.25 177.960938 886.492188 177.414062 C 886.992188 176.28125 888.335938 175.761719 889.46875 176.265625 C 894.515625 178.511719 899.367188 181.261719 903.894531 184.480469 C 904.914062 185.207031 905.15625 186.613281 904.429688 187.632812 C 904.007812 188.230469 903.328125 188.589844 902.585938 188.589844 Z M 899.367188 184.140625 C 900.464844 184.835938 901.53125 185.5625 902.585938 186.308594 C 901.53125 185.5625 900.464844 184.851562 899.367188 184.140625 Z M 535.058594 182.136719 C 534.203125 182.136719 533.410156 181.648438 533.039062 180.875 C 532.761719 180.339844 532.730469 179.726562 532.925781 179.144531 C 533.117188 178.578125 533.523438 178.109375 534.054688 177.832031 C 539.003906 175.359375 544.230469 173.386719 549.582031 171.960938 C 550.796875 171.640625 552.023438 172.351562 552.347656 173.5625 C 552.671875 174.777344 551.960938 176.023438 550.746094 176.34375 C 545.699219 177.6875 540.753906 179.5625 536.078125 181.894531 C 535.753906 182.054688 535.414062 182.136719 535.058594 182.136719 Z M 873.230469 175.570312 C 873.070312 175.570312 872.90625 175.554688 872.746094 175.519531 C 867.652344 174.40625 862.410156 173.789062 857.15625 173.691406 C 855.910156 173.675781 854.90625 172.640625 854.921875 171.398438 C 854.9375 170.167969 855.957031 169.164062 857.1875 169.164062 C 862.78125 169.261719 868.3125 169.910156 873.699219 171.089844 C 874.296875 171.21875 874.800781 171.574219 875.121094 172.074219 C 875.445312 172.578125 875.558594 173.191406 875.429688 173.773438 C 875.203125 174.824219 874.28125 175.570312 873.230469 175.570312 Z M 857.1875 171.429688 C 860.566406 171.492188 863.964844 171.753906 867.296875 172.238281 C 863.964844 171.753906 860.582031 171.476562 857.1875 171.429688 Z M 566.078125 173.839844 C 564.882812 173.839844 563.894531 172.902344 563.8125 171.71875 C 563.734375 170.476562 564.6875 169.390625 565.933594 169.328125 C 567.664062 169.214844 569.410156 169.164062 571.109375 169.164062 L 582.234375 169.164062 C 583.480469 169.164062 584.5 170.183594 584.5 171.429688 C 584.5 172.675781 583.480469 173.691406 582.234375 173.691406 L 571.140625 173.691406 C 569.476562 173.691406 567.824219 173.742188 566.207031 173.839844 Z M 571.15625 171.414062 C 569.457031 171.414062 567.761719 171.460938 566.078125 171.574219 C 567.761719 171.476562 569.441406 171.414062 571.109375 171.414062 L 582.234375 171.414062 Z M 841.015625 173.675781 L 824.84375 173.675781 C 823.597656 173.675781 822.578125 172.65625 822.578125 171.414062 C 822.578125 170.167969 823.597656 169.148438 824.84375 169.148438 L 841.015625 169.148438 C 842.261719 169.148438 843.277344 170.167969 843.277344 171.414062 C 843.277344 172.65625 842.277344 173.675781 841.015625 173.675781 Z M 841.015625 171.414062 L 841.015625 172.542969 Z M 808.667969 173.675781 L 792.496094 173.675781 C 791.25 173.675781 790.230469 172.65625 790.230469 171.414062 C 790.230469 170.167969 791.25 169.148438 792.496094 169.148438 L 808.667969 169.148438 C 809.914062 169.148438 810.933594 170.167969 810.933594 171.414062 C 810.933594 172.65625 809.929688 173.675781 808.667969 173.675781 Z M 808.667969 171.414062 L 808.667969 172.542969 Z M 776.324219 173.675781 L 760.152344 173.675781 C 758.90625 173.675781 757.886719 172.65625 757.886719 171.414062 C 757.886719 170.167969 758.90625 169.148438 760.152344 169.148438 L 776.324219 169.148438 C 777.570312 169.148438 778.589844 170.167969 778.589844 171.414062 C 778.589844 172.65625 777.585938 173.675781 776.324219 173.675781 Z M 776.324219 171.414062 L 776.324219 172.542969 Z M 743.976562 173.675781 L 727.804688 173.675781 C 726.558594 173.675781 725.542969 172.65625 725.542969 171.414062 C 725.542969 170.167969 726.558594 169.148438 727.804688 169.148438 L 743.976562 169.148438 C 745.222656 169.148438 746.242188 170.167969 746.242188 171.414062 C 746.242188 172.65625 745.238281 173.675781 743.976562 173.675781 Z M 743.976562 171.414062 L 743.976562 172.542969 Z M 711.632812 173.675781 L 695.460938 173.675781 C 694.214844 173.675781 693.195312 172.65625 693.195312 171.414062 C 693.195312 170.167969 694.214844 169.148438 695.460938 169.148438 L 711.632812 169.148438 C 712.878906 169.148438 713.898438 170.167969 713.898438 171.414062 C 713.898438 172.65625 712.894531 173.675781 711.632812 173.675781 Z M 711.632812 171.414062 L 711.632812 172.542969 Z M 679.289062 173.675781 L 663.113281 173.675781 C 661.871094 173.675781 660.851562 172.65625 660.851562 171.414062 C 660.851562 170.167969 661.871094 169.148438 663.113281 169.148438 L 679.289062 169.148438 C 680.53125 169.148438 681.550781 170.167969 681.550781 171.414062 C 681.550781 172.65625 680.53125 173.675781 679.289062 173.675781 Z M 679.289062 171.414062 L 679.289062 172.542969 Z M 646.941406 173.675781 L 630.769531 173.675781 C 629.523438 173.675781 628.503906 172.65625 628.503906 171.414062 C 628.503906 170.167969 629.523438 169.148438 630.769531 169.148438 L 646.941406 169.148438 C 648.1875 169.148438 649.207031 170.167969 649.207031 171.414062 C 649.207031 172.65625 648.1875 173.675781 646.941406 173.675781 Z M 646.941406 171.414062 L 646.941406 172.542969 Z M 614.597656 173.675781 L 598.425781 173.675781 C 597.179688 173.675781 596.160156 172.65625 596.160156 171.414062 C 596.160156 170.167969 597.179688 169.148438 598.425781 169.148438 L 614.597656 169.148438 C 615.84375 169.148438 616.859375 170.167969 616.859375 171.414062 C 616.859375 172.65625 615.84375 173.675781 614.597656 173.675781 Z M 614.597656 171.414062 L 614.597656 172.542969 Z M 614.597656 171.414062 " fill-opacity="1" fill-rule="nonzero"/></g><g clip-path="url(#cb5c86af5c)"><path fill="#ffffff" d="M 631.109375 211.644531 L 569.957031 227.890625 C 567.945312 228.425781 567.945312 231.292969 569.957031 231.828125 L 631.109375 248.074219 C 631.945312 248.296875 632.714844 248.296875 633.550781 248.074219 L 694.703125 231.828125 C 696.714844 231.296875 696.714844 228.425781 694.703125 227.890625 L 633.550781 211.644531 C 632.714844 211.425781 631.945312 211.425781 631.109375 211.644531 Z M 816.195312 425.632812 C 787.503906 425.632812 764.246094 448.890625 764.246094 477.582031 C 764.246094 506.273438 787.503906 529.53125 816.195312 529.53125 C 844.882812 529.53125 868.144531 506.269531 868.144531 477.582031 C 868.144531 448.890625 844.882812 425.632812 816.195312 425.632812 Z M 846.359375 468.355469 L 814.933594 499.78125 C 810.390625 504.328125 804.3125 502.480469 800.285156 498.449219 L 786.027344 484.195312 C 782.464844 480.632812 782.464844 474.800781 786.027344 471.234375 C 789.59375 467.671875 795.425781 467.671875 798.988281 471.234375 L 808.273438 480.519531 L 833.398438 455.398438 C 841.972656 446.824219 854.933594 459.785156 846.359375 468.355469 Z M 656.316406 451.554688 C 647.867188 443.628906 648.988281 445.566406 646.34375 434.289062 C 645.328125 429.953125 641.722656 426.925781 637.277344 426.679688 C 625.710938 426.035156 627.816406 426.800781 618.539062 419.859375 C 614.976562 417.195312 610.269531 417.195312 606.707031 419.859375 C 597.429688 426.800781 599.535156 426.035156 587.96875 426.679688 C 583.523438 426.925781 579.917969 429.953125 578.902344 434.289062 C 576.257812 445.566406 577.378906 443.628906 568.929688 451.554688 C 565.6875 454.601562 564.867188 459.242188 566.875 463.210938 C 572.101562 473.550781 571.714844 471.347656 570.339844 482.847656 C 569.808594 487.265625 572.164062 491.347656 576.257812 493.097656 C 586.90625 497.660156 585.191406 496.21875 591.53125 505.917969 C 593.96875 509.640625 598.394531 511.25 602.652344 509.964844 C 613.742188 506.613281 611.503906 506.613281 622.59375 509.964844 C 626.851562 511.25 631.277344 509.640625 633.714844 505.917969 C 640.054688 496.222656 638.339844 497.660156 648.988281 493.097656 C 653.078125 491.347656 655.433594 487.265625 654.90625 482.847656 C 653.53125 471.347656 653.144531 473.550781 658.371094 463.210938 C 660.378906 459.242188 659.558594 454.601562 656.316406 451.554688 Z M 612.625 491.769531 C 597.359375 491.769531 584.984375 479.394531 584.984375 464.128906 C 584.984375 448.867188 597.359375 436.492188 612.625 436.492188 C 627.886719 436.492188 640.261719 448.867188 640.261719 464.128906 C 640.261719 479.394531 627.886719 491.769531 612.625 491.769531 Z M 627.269531 521.1875 L 630.496094 528.675781 C 631.148438 530.191406 633.230469 530.347656 634.097656 528.945312 L 640.679688 518.335938 L 652.910156 520.84375 C 654.527344 521.171875 655.84375 519.554688 655.191406 518.039062 L 649.417969 504.640625 C 648.390625 505.070312 647.410156 505.511719 646.734375 505.917969 C 645.511719 507.324219 643.808594 510.332031 642.808594 511.863281 C 639.230469 517.332031 633.46875 520.652344 627.269531 521.1875 Z M 600.359375 521.253906 L 594.535156 533.765625 C 593.839844 535.257812 591.753906 535.351562 590.925781 533.925781 L 584.65625 523.132812 L 572.355469 525.28125 C 570.730469 525.566406 569.460938 523.910156 570.160156 522.414062 L 577.976562 505.621094 C 578.171875 505.722656 578.351562 505.820312 578.515625 505.917969 C 579.734375 507.324219 581.4375 510.332031 582.4375 511.863281 C 586.472656 518.03125 593.28125 521.464844 600.359375 521.253906 Z M 561.332031 274.464844 L 561.332031 239.039062 C 562.828125 240.53125 564.769531 241.691406 567.167969 242.328125 L 572.199219 243.667969 L 572.199219 274.464844 L 573.429688 275.175781 C 574.292969 275.671875 574.789062 276.527344 574.789062 277.527344 L 574.789062 293.742188 C 574.789062 294.863281 573.511719 295.5 572.613281 294.824219 L 566.765625 290.429688 L 560.917969 294.824219 C 560.019531 295.5 558.742188 294.863281 558.742188 293.742188 L 558.742188 277.527344 C 558.742188 276.527344 559.238281 275.671875 560.101562 275.175781 Z M 584.613281 246.964844 L 584.613281 269.882812 C 584.613281 272.199219 586.226562 274.136719 588.5 274.558594 C 639.488281 284.019531 625.171875 284.019531 676.164062 274.558594 C 678.4375 274.136719 680.050781 272.199219 680.050781 269.882812 L 680.050781 246.964844 L 636.339844 258.574219 C 633.679688 259.28125 630.980469 259.28125 628.320312 258.574219 Z M 790.246094 220.445312 L 790.246094 253.074219 C 790.246094 254.675781 791.550781 255.980469 793.152344 255.980469 L 825.78125 255.980469 C 825.5 255.363281 825.097656 254.792969 824.582031 254.277344 L 791.949219 221.644531 C 791.433594 221.128906 790.863281 220.726562 790.246094 220.445312 Z M 793.152344 266.847656 C 785.554688 266.847656 779.378906 260.671875 779.378906 253.074219 L 779.378906 219.941406 L 702.519531 219.941406 C 709.898438 226.085938 708.222656 239.480469 697.492188 242.332031 L 690.914062 244.078125 L 690.914062 269.886719 C 690.914062 277.433594 685.566406 283.867188 678.144531 285.242188 C 668.769531 286.980469 659.414062 288.902344 650.03125 290.578125 C 636.371094 293.015625 628.289062 293.015625 614.628906 290.578125 C 611.035156 289.9375 607.441406 289.257812 603.855469 288.570312 L 603.855469 408.960938 C 610.691406 405.742188 618.792969 406.476562 625.050781 411.160156 C 631.828125 416.234375 629.433594 415.363281 637.882812 415.832031 C 647.136719 416.347656 654.808594 422.785156 656.921875 431.808594 C 658.855469 440.050781 657.578125 437.84375 663.75 443.632812 C 670.496094 449.964844 672.238281 459.859375 668.066406 468.113281 C 664.25 475.664062 664.691406 473.15625 665.695312 481.558594 C 666.519531 488.441406 663.925781 495.023438 659.007812 499.433594 L 662.796875 508.234375 L 761.359375 508.234375 C 756.277344 499.164062 753.378906 488.710938 753.378906 477.582031 C 753.378906 442.894531 781.503906 414.765625 816.191406 414.765625 C 819.628906 414.765625 823 415.046875 826.285156 415.578125 L 826.285156 266.847656 Z M 702.390625 249.25 L 762.730469 249.25 C 765.730469 249.25 768.164062 251.683594 768.164062 254.683594 C 768.164062 257.683594 765.730469 260.117188 762.730469 260.117188 L 702.390625 260.117188 C 699.390625 260.117188 696.957031 257.683594 696.957031 254.683594 C 696.957031 251.683594 699.390625 249.25 702.390625 249.25 Z M 702.390625 269.664062 L 762.730469 269.664062 C 765.730469 269.664062 768.164062 272.097656 768.164062 275.097656 C 768.164062 278.097656 765.730469 280.53125 762.730469 280.53125 L 702.390625 280.53125 C 699.390625 280.53125 696.957031 278.097656 696.957031 275.097656 C 696.957031 272.097656 699.390625 269.664062 702.390625 269.664062 Z M 700.894531 290.101562 L 803.195312 290.015625 C 806.183594 290.015625 808.605469 292.441406 808.605469 295.429688 C 808.605469 298.417969 806.183594 300.839844 803.195312 300.839844 L 700.894531 300.925781 C 697.90625 300.925781 695.480469 298.5 695.480469 295.511719 C 695.480469 292.523438 697.90625 290.101562 700.894531 290.101562 Z M 626.945312 317.296875 L 803.195312 317.296875 C 806.195312 317.296875 808.628906 319.730469 808.628906 322.730469 C 808.628906 325.730469 806.195312 328.164062 803.195312 328.164062 L 626.945312 328.164062 C 623.945312 328.164062 621.511719 325.730469 621.511719 322.730469 C 621.511719 319.730469 623.945312 317.296875 626.945312 317.296875 Z M 626.945312 337.710938 L 774.855469 337.710938 C 777.855469 337.710938 780.289062 340.140625 780.289062 343.140625 C 780.289062 346.144531 777.855469 348.574219 774.855469 348.574219 L 626.945312 348.574219 C 623.945312 348.574219 621.511719 346.144531 621.511719 343.140625 C 621.511719 340.140625 623.945312 337.710938 626.945312 337.710938 Z M 626.945312 368.988281 C 623.945312 368.988281 621.511719 366.554688 621.511719 363.554688 C 621.511719 360.554688 623.945312 358.121094 626.945312 358.121094 L 777.453125 358.121094 C 780.453125 358.121094 782.886719 360.554688 782.886719 363.554688 C 782.886719 366.554688 780.453125 368.988281 777.453125 368.988281 Z M 779.511719 416.621094 L 733.621094 416.621094 C 730.621094 416.621094 728.1875 414.1875 728.1875 411.1875 C 728.1875 408.1875 730.621094 405.753906 733.621094 405.753906 L 779.511719 405.753906 C 782.511719 405.753906 784.945312 408.1875 784.945312 411.1875 C 784.945312 414.1875 782.511719 416.621094 779.511719 416.621094 Z M 803.195312 396.207031 L 733.621094 396.207031 C 730.621094 396.207031 728.1875 393.773438 728.1875 390.773438 C 728.1875 387.773438 730.621094 385.339844 733.621094 385.339844 L 803.195312 385.339844 C 806.195312 385.339844 808.628906 387.773438 808.628906 390.773438 C 808.628906 393.773438 806.195312 396.207031 803.195312 396.207031 Z M 803.195312 396.207031 " fill-opacity="1" fill-rule="evenodd"/></g><path fill="#ffffff" d="M 1218.832031 312.203125 C 1208.191406 312.203125 1199.503906 320.851562 1199.503906 331.492188 C 1199.503906 342.171875 1208.191406 350.820312 1218.832031 350.820312 C 1229.472656 350.820312 1238.160156 342.171875 1238.160156 331.492188 C 1238.160156 320.851562 1229.472656 312.203125 1218.832031 312.203125 Z M 1218.832031 312.203125 " fill-opacity="1" fill-rule="nonzero"/><g clip-path="url(#21dcc17c05)"><path fill="#ffffff" d="M 1218.792969 289.039062 C 1187.734375 289.039062 1162.429688 314.308594 1162.429688 345.40625 C 1162.429688 362.703125 1170.289062 378.195312 1182.582031 388.535156 C 1182.582031 388.535156 1182.582031 388.535156 1182.582031 388.570312 C 1192.398438 396.808594 1205.03125 401.769531 1218.792969 401.769531 C 1238.421875 401.769531 1256.320312 391.84375 1266.699219 375.1875 C 1272.300781 366.238281 1275.234375 355.972656 1275.234375 345.40625 C 1275.234375 334.839844 1272.300781 324.535156 1266.699219 315.625 C 1256.320312 298.96875 1238.421875 289.039062 1218.792969 289.039062 Z M 1260.34375 371.199219 C 1258.539062 374.09375 1256.433594 376.652344 1254.140625 379.058594 C 1248.425781 367.328125 1236.277344 359.507812 1222.855469 359.507812 L 1214.808594 359.507812 C 1205.484375 359.507812 1196.722656 363.152344 1190.140625 369.734375 C 1187.398438 372.441406 1185.214844 375.636719 1183.523438 379.097656 C 1175.140625 370.335938 1169.949219 358.492188 1169.949219 345.40625 C 1169.949219 318.484375 1191.871094 296.5625 1218.792969 296.5625 C 1235.828125 296.5625 1251.320312 305.171875 1260.34375 319.609375 C 1265.15625 327.355469 1267.714844 336.269531 1267.714844 345.40625 C 1267.714844 354.542969 1265.15625 363.453125 1260.34375 371.199219 Z M 1260.34375 371.199219 " fill-opacity="1" fill-rule="nonzero"/></g><g clip-path="url(#06486eced7)"><path fill="#ffffff" d="M 303.40625 222.121094 L 303.40625 181.730469 C 303.40625 180.765625 302.933594 179.859375 302.144531 179.300781 C 288.574219 169.777344 274.992188 168.914062 261.34375 168.929688 C 247.78125 168.949219 234.207031 169.808594 220.566406 179.296875 C 219.769531 179.851562 219.292969 180.761719 219.292969 181.730469 C 219.292969 181.730469 219.292969 202.039062 219.292969 222.121094 C 219.292969 245.347656 238.121094 264.179688 261.347656 264.179688 L 261.347656 261.210938 C 261.347656 264.179688 261.347656 264.179688 261.347656 264.179688 C 284.578125 264.179688 303.40625 245.347656 303.40625 222.121094 Z M 297.46875 183.304688 C 285.472656 175.40625 273.417969 174.851562 261.351562 174.867188 C 249.351562 174.882812 237.296875 175.441406 225.226562 183.3125 L 225.226562 222.121094 C 225.226562 242.070312 241.398438 258.242188 261.347656 258.242188 C 261.347656 258.242188 261.347656 261.210938 261.347656 261.210938 L 261.347656 258.242188 C 281.296875 258.242188 297.46875 242.070312 297.46875 222.121094 Z M 297.46875 183.304688 " fill-opacity="1" fill-rule="evenodd"/></g><path fill="#ffffff" d="M 279.953125 214.371094 C 279.953125 212.730469 278.625 211.402344 276.984375 211.402344 L 245.714844 211.402344 C 244.074219 211.402344 242.746094 212.730469 242.746094 214.371094 L 242.746094 236.207031 C 242.746094 237.847656 244.074219 239.175781 245.714844 239.175781 L 276.984375 239.175781 C 278.625 239.175781 279.953125 237.847656 279.953125 236.207031 Z M 279.953125 214.371094 " fill-opacity="1" fill-rule="evenodd"/><path fill="#ffffff" d="M 276.042969 208.628906 C 276.042969 204.730469 274.496094 200.992188 271.738281 198.238281 C 268.984375 195.484375 265.246094 193.933594 261.347656 193.933594 L 261.347656 196.902344 C 261.347656 193.933594 261.347656 193.933594 261.347656 193.933594 C 257.453125 193.933594 253.714844 195.484375 250.957031 198.238281 C 248.203125 200.992188 246.65625 204.730469 246.65625 208.628906 C 246.65625 211.796875 246.65625 214.371094 246.65625 214.371094 C 246.65625 216.011719 247.984375 217.339844 249.621094 217.339844 L 273.074219 217.339844 C 274.714844 217.339844 276.042969 216.011719 276.042969 214.371094 Z M 270.109375 211.402344 L 270.109375 208.628906 C 270.109375 206.304688 269.183594 204.078125 267.542969 202.433594 C 265.898438 200.792969 263.671875 199.867188 261.347656 199.867188 L 261.347656 196.902344 L 261.347656 199.867188 C 259.027344 199.867188 256.796875 200.792969 255.15625 202.433594 C 253.511719 204.078125 252.589844 206.304688 252.589844 208.628906 L 252.589844 211.402344 Z M 270.109375 211.402344 " fill-opacity="1" fill-rule="evenodd"/><g clip-path="url(#c1d0e480ad)"><path fill="#ffffff" d="M 312.277344 622.160156 L 312.277344 612.132812 L 321.082031 607.101562 L 321.082031 617.125 Z M 299.957031 607.101562 L 308.757812 612.132812 L 308.757812 622.160156 L 299.957031 617.125 Z M 284.984375 616.625 L 273.550781 610.085938 L 273.550781 603.332031 L 284.984375 596.792969 C 285.535156 596.484375 285.875 595.898438 285.875 595.265625 L 285.875 581.183594 C 285.875 580.550781 285.535156 579.964844 284.984375 579.65625 L 273.550781 573.117188 L 273.550781 566.363281 L 284.167969 560.292969 L 296.433594 566.425781 L 296.433594 572.382812 C 296.433594 573.015625 296.773438 573.597656 297.324219 573.910156 L 308.757812 580.449219 L 308.757812 596.003906 L 297.324219 602.542969 C 296.773438 602.851562 296.433594 603.4375 296.433594 604.066406 L 296.433594 617.175781 L 285.875 623.777344 L 285.875 618.152344 C 285.875 617.519531 285.535156 616.933594 284.984375 616.625 Z M 273.550781 636.242188 L 273.550781 626.21875 L 282.351562 621.183594 L 282.351562 631.210938 Z M 261.226562 621.183594 L 270.03125 626.21875 L 270.03125 636.242188 L 261.226562 631.210938 Z M 247.144531 617.175781 L 247.144531 604.066406 C 247.144531 603.4375 246.808594 602.851562 246.257812 602.542969 L 234.824219 596.003906 L 234.824219 580.449219 L 246.257812 573.910156 C 246.808594 573.597656 247.144531 573.015625 247.144531 572.382812 L 247.144531 566.425781 L 259.414062 560.292969 L 270.03125 566.363281 L 270.03125 573.117188 L 258.59375 579.65625 C 258.042969 579.964844 257.707031 580.550781 257.707031 581.183594 L 257.707031 595.265625 C 257.707031 595.898438 258.042969 596.484375 258.59375 596.792969 L 270.03125 603.332031 L 270.03125 610.085938 L 258.59375 616.625 C 258.042969 616.933594 257.707031 617.519531 257.707031 618.152344 L 257.707031 623.777344 Z M 234.824219 622.160156 L 234.824219 612.132812 L 243.625 607.101562 L 243.625 617.125 Z M 222.5 607.101562 L 231.300781 612.132812 L 231.300781 622.160156 L 222.5 617.125 Z M 233.0625 609.082031 L 224.289062 604.066406 L 233.0625 599.054688 L 241.835938 604.066406 Z M 222.5 561.332031 L 231.300781 566.363281 L 231.300781 576.390625 L 222.5 571.355469 Z M 233.0625 553.285156 L 241.835938 558.300781 L 233.0625 563.3125 L 224.289062 558.300781 Z M 234.824219 566.363281 L 243.625 561.332031 L 243.625 571.355469 L 234.824219 576.390625 Z M 271.789062 539.203125 L 280.566406 544.214844 L 271.789062 549.230469 L 263.015625 544.214844 Z M 273.550781 552.28125 L 282.351562 547.25 L 282.351562 557.273438 L 273.550781 562.308594 Z M 261.226562 547.25 L 270.03125 552.28125 L 270.03125 562.308594 L 261.226562 557.273438 Z M 271.789062 586.195312 L 263.015625 581.183594 L 271.789062 576.171875 L 280.566406 581.183594 Z M 273.550781 589.25 L 282.351562 584.214844 L 282.351562 594.242188 L 273.550781 599.277344 Z M 261.226562 584.214844 L 270.03125 589.25 L 270.03125 599.277344 L 261.226562 594.242188 Z M 271.789062 623.164062 L 263.015625 618.152344 L 271.789062 613.136719 L 280.566406 618.152344 Z M 310.519531 553.285156 L 319.292969 558.300781 L 310.519531 563.3125 L 301.742188 558.300781 Z M 299.957031 561.332031 L 308.757812 566.363281 L 308.757812 576.390625 L 299.957031 571.355469 Z M 310.519531 609.082031 L 301.742188 604.066406 L 310.519531 599.054688 L 319.292969 604.066406 Z M 312.277344 576.390625 L 312.277344 566.363281 L 321.082031 561.332031 L 321.082031 571.355469 Z M 323.714844 573.910156 C 324.265625 573.597656 324.601562 573.015625 324.601562 572.382812 L 324.601562 558.300781 C 324.601562 557.667969 324.265625 557.082031 323.714844 556.773438 L 311.390625 549.730469 C 310.855469 549.421875 310.179688 549.421875 309.644531 549.730469 L 297.324219 556.773438 C 296.773438 557.082031 296.433594 557.667969 296.433594 558.300781 L 296.433594 562.492188 L 285.875 557.210938 L 285.875 544.214844 C 285.875 543.582031 285.535156 543 284.984375 542.691406 L 272.664062 535.648438 C 272.128906 535.339844 271.453125 535.339844 270.917969 535.648438 L 258.59375 542.691406 C 258.042969 543 257.707031 543.582031 257.707031 544.214844 L 257.707031 557.210938 L 247.144531 562.492188 L 247.144531 558.300781 C 247.144531 557.667969 246.808594 557.082031 246.257812 556.773438 L 233.9375 549.730469 C 233.398438 549.421875 232.734375 549.421875 232.1875 549.730469 L 219.867188 556.773438 C 219.316406 557.082031 218.980469 557.667969 218.980469 558.300781 L 218.980469 572.382812 C 218.980469 573.015625 219.316406 573.597656 219.867188 573.910156 L 231.300781 580.449219 L 231.300781 596.003906 L 219.867188 602.542969 C 219.316406 602.851562 218.980469 603.4375 218.980469 604.066406 L 218.980469 618.152344 C 218.980469 618.785156 219.316406 619.367188 219.867188 619.675781 L 232.1875 626.71875 C 232.457031 626.878906 232.761719 626.953125 233.0625 626.953125 C 233.363281 626.953125 233.667969 626.878906 233.9375 626.71875 L 245.34375 620.199219 L 257.707031 627.929688 L 257.707031 632.234375 C 257.707031 632.867188 258.042969 633.449219 258.59375 633.761719 L 270.917969 640.800781 C 271.183594 640.960938 271.488281 641.035156 271.789062 641.035156 C 272.09375 641.035156 272.394531 640.960938 272.664062 640.800781 L 284.984375 633.761719 C 285.535156 633.449219 285.875 632.867188 285.875 632.234375 L 285.875 627.929688 L 298.238281 620.199219 L 309.644531 626.71875 C 309.914062 626.878906 310.214844 626.953125 310.519531 626.953125 C 310.820312 626.953125 311.125 626.878906 311.390625 626.71875 L 323.714844 619.675781 C 324.265625 619.367188 324.601562 618.785156 324.601562 618.152344 L 324.601562 604.066406 C 324.601562 603.4375 324.265625 602.851562 323.714844 602.542969 L 312.277344 596.003906 L 312.277344 580.449219 L 323.714844 573.910156 " fill-opacity="1" fill-rule="nonzero"/></g><path fill="#ffffff" d="M 939.0625 343.90625 L 942.0625 343.90625 L 942.0625 346.90625 L 939.0625 346.90625 M 945.0625 343.90625 L 948.0625 343.90625 L 948.0625 346.90625 L 945.0625 346.90625 M 951.0625 343.90625 L 954.0625 343.90625 L 954.0625 346.90625 L 951.0625 346.90625 M 957.0625 343.90625 L 960.0625 343.90625 L 960.0625 346.90625 L 957.0625 346.90625 M 963.0625 343.90625 L 966.0625 343.90625 L 966.0625 346.90625 L 963.0625 346.90625 M 969.0625 343.90625 L 972.0625 343.90625 L 972.0625 346.90625 L 969.0625 346.90625 M 975.0625 343.90625 L 978.0625 343.90625 L 978.0625 346.90625 L 975.0625 346.90625 M 981.0625 343.90625 L 984.0625 343.90625 L 984.0625 346.90625 L 981.0625 346.90625 M 987.0625 343.90625 L 990.0625 343.90625 L 990.0625 346.90625 L 987.0625 346.90625 M 993.0625 343.90625 L 996.0625 343.90625 L 996.0625 346.90625 L 993.0625 346.90625 M 999.0625 343.90625 L 1002.0625 343.90625 L 1002.0625 346.90625 L 999.0625 346.90625 M 1005.0625 343.90625 L 1008.0625 343.90625 L 1008.0625 346.90625 L 1005.0625 346.90625 M 1011.0625 343.90625 L 1014.0625 343.90625 L 1014.0625 346.90625 L 1011.0625 346.90625 M 1017.0625 343.90625 L 1020.0625 343.90625 L 1020.0625 346.90625 L 1017.0625 346.90625 M 1023.0625 343.90625 L 1026.0625 343.90625 L 1026.0625 346.90625 L 1023.0625 346.90625 M 1029.0625 343.90625 L 1032.0625 343.90625 L 1032.0625 346.90625 L 1029.0625 346.90625 M 1035.0625 343.90625 L 1038.0625 343.90625 L 1038.0625 346.90625 L 1035.0625 346.90625 M 1041.0625 343.90625 L 1044.0625 343.90625 L 1044.0625 346.90625 L 1041.0625 346.90625 M 1047.0625 343.90625 L 1050.0625 343.90625 L 1050.0625 346.90625 L 1047.0625 346.90625 M 1053.0625 343.90625 L 1056.0625 343.90625 L 1056.0625 346.90625 L 1053.0625 346.90625 M 1059.0625 343.90625 L 1062.0625 343.90625 L 1062.0625 346.90625 L 1059.0625 346.90625 M 1065.0625 343.90625 L 1068.0625 343.90625 L 1068.0625 346.90625 L 1065.0625 346.90625 M 1071.0625 343.90625 L 1074.0625 343.90625 L 1074.0625 346.90625 L 1071.0625 346.90625 M 1077.0625 343.90625 L 1080.0625 343.90625 L 1080.0625 346.90625 L 1077.0625 346.90625 M 1083.0625 343.90625 L 1086.0625 343.90625 L 1086.0625 346.90625 L 1083.0625 346.90625 M 1089.0625 343.90625 L 1092.0625 343.90625 L 1092.0625 346.90625 L 1089.0625 346.90625 M 1095.0625 343.90625 L 1098.0625 343.90625 L 1098.0625 346.90625 L 1095.0625 346.90625 M 1101.0625 343.90625 L 1104.0625 343.90625 L 1104.0625 346.90625 L 1101.0625 346.90625 M 1107.0625 343.90625 L 1110.0625 343.90625 L 1110.0625 346.90625 L 1107.0625 346.90625 M 1113.0625 343.90625 L 1116.0625 343.90625 L 1116.0625 346.90625 L 1113.0625 346.90625 M 1119.0625 343.90625 L 1122.0625 343.90625 L 1122.0625 346.90625 L 1119.0625 346.90625 M 1125.0625 343.90625 L 1128.0625 343.90625 L 1128.0625 346.90625 L 1125.0625 346.90625 M 1131.0625 343.90625 L 1134.0625 343.90625 L 1134.0625 346.90625 L 1131.0625 346.90625 M 1137.0625 343.90625 L 1140.0625 343.90625 L 1140.0625 346.90625 L 1137.0625 346.90625 M 1143.0625 343.90625 L 1146.0625 343.90625 L 1146.0625 346.90625 L 1143.0625 346.90625 M 1149.0625 343.90625 L 1152.0625 343.90625 L 1152.0625 346.90625 L 1149.0625 346.90625 M 1155.0625 343.90625 L 1158.0625 343.90625 L 1158.0625 346.90625 L 1155.0625 346.90625 M 1161.0625 343.90625 L 1162.429688 343.90625 L 1162.429688 346.90625 L 1161.0625 346.90625 " fill-opacity="1" fill-rule="nonzero"/><path fill="#ffffff" d="M 271.796875 450.132812 L 274.796875 450.132812 L 274.796875 453.132812 L 271.796875 453.132812 M 277.796875 450.132812 L 280.796875 450.132812 L 280.796875 453.132812 L 277.796875 453.132812 M 283.796875 450.132812 L 286.796875 450.132812 L 286.796875 453.132812 L 283.796875 453.132812 M 289.796875 450.132812 L 292.796875 450.132812 L 292.796875 453.132812 L 289.796875 453.132812 M 295.796875 450.132812 L 298.796875 450.132812 L 298.796875 453.132812 L 295.796875 453.132812 M 301.796875 450.132812 L 304.796875 450.132812 L 304.796875 453.132812 L 301.796875 453.132812 M 307.796875 450.132812 L 310.796875 450.132812 L 310.796875 453.132812 L 307.796875 453.132812 M 313.796875 450.132812 L 316.796875 450.132812 L 316.796875 453.132812 L 313.796875 453.132812 M 319.796875 450.132812 L 322.796875 450.132812 L 322.796875 453.132812 L 319.796875 453.132812 M 325.796875 450.132812 L 328.796875 450.132812 L 328.796875 453.132812 L 325.796875 453.132812 M 331.796875 450.132812 L 334.796875 450.132812 L 334.796875 453.132812 L 331.796875 453.132812 M 337.796875 450.132812 L 340.796875 450.132812 L 340.796875 453.132812 L 337.796875 453.132812 M 343.796875 450.132812 L 346.796875 450.132812 L 346.796875 453.132812 L 343.796875 453.132812 M 349.796875 450.132812 L 352.796875 450.132812 L 352.796875 453.132812 L 349.796875 453.132812 M 355.796875 450.132812 L 358.796875 450.132812 L 358.796875 453.132812 L 355.796875 453.132812 M 361.796875 450.132812 L 364.796875 450.132812 L 364.796875 453.132812 L 361.796875 453.132812 M 367.796875 450.132812 L 370.796875 450.132812 L 370.796875 453.132812 L 367.796875 453.132812 M 373.796875 450.132812 L 376.796875 450.132812 L 376.796875 453.132812 L 373.796875 453.132812 M 379.796875 450.132812 L 382.796875 450.132812 L 382.796875 453.132812 L 379.796875 453.132812 M 385.796875 450.132812 L 388.796875 450.132812 L 388.796875 453.132812 L 385.796875 453.132812 M 391.796875 450.132812 L 394.796875 450.132812 L 394.796875 453.132812 L 391.796875 453.132812 M 397.796875 450.132812 L 400.796875 450.132812 L 400.796875 453.132812 L 397.796875 453.132812 M 403.796875 450.132812 L 406.796875 450.132812 L 406.796875 453.132812 L 403.796875 453.132812 M 409.796875 450.132812 L 412.796875 450.132812 L 412.796875 453.132812 L 409.796875 453.132812 M 415.796875 450.132812 L 418.796875 450.132812 L 418.796875 453.132812 L 415.796875 453.132812 M 421.796875 450.132812 L 424.796875 450.132812 L 424.796875 453.132812 L 421.796875 453.132812 M 427.796875 450.132812 L 430.796875 450.132812 L 430.796875 453.132812 L 427.796875 453.132812 M 433.796875 450.132812 L 436.796875 450.132812 L 436.796875 453.132812 L 433.796875 453.132812 M 439.796875 450.132812 L 442.796875 450.132812 L 442.796875 453.132812 L 439.796875 453.132812 M 445.796875 450.132812 L 448.796875 450.132812 L 448.796875 453.132812 L 445.796875 453.132812 M 451.796875 450.132812 L 454.796875 450.132812 L 454.796875 453.132812 L 451.796875 453.132812 M 457.796875 450.132812 L 460.796875 450.132812 L 460.796875 453.132812 L 457.796875 453.132812 M 463.796875 450.132812 L 466.796875 450.132812 L 466.796875 453.132812 L 463.796875 453.132812 M 469.796875 450.132812 L 472.796875 450.132812 L 472.796875 453.132812 L 469.796875 453.132812 M 475.796875 450.132812 L 478.796875 450.132812 L 478.796875 453.132812 L 475.796875 453.132812 M 481.796875 450.132812 L 484.796875 450.132812 L 484.796875 453.132812 L 481.796875 453.132812 M 487.796875 450.132812 L 487.835938 450.132812 L 487.835938 453.132812 L 487.796875 453.132812 " fill-opacity="1" fill-rule="nonzero"/><path fill="#ffffff" d="M 261.335938 321.339844 L 264.335938 321.339844 L 264.335938 324.339844 L 261.335938 324.339844 M 267.335938 321.339844 L 270.335938 321.339844 L 270.335938 324.339844 L 267.335938 324.339844 M 273.335938 321.339844 L 276.335938 321.339844 L 276.335938 324.339844 L 273.335938 324.339844 M 279.335938 321.339844 L 282.335938 321.339844 L 282.335938 324.339844 L 279.335938 324.339844 M 285.335938 321.339844 L 288.335938 321.339844 L 288.335938 324.339844 L 285.335938 324.339844 M 291.335938 321.339844 L 294.335938 321.339844 L 294.335938 324.339844 L 291.335938 324.339844 M 297.335938 321.339844 L 300.335938 321.339844 L 300.335938 324.339844 L 297.335938 324.339844 M 303.335938 321.339844 L 306.335938 321.339844 L 306.335938 324.339844 L 303.335938 324.339844 M 309.335938 321.339844 L 312.335938 321.339844 L 312.335938 324.339844 L 309.335938 324.339844 M 315.335938 321.339844 L 318.335938 321.339844 L 318.335938 324.339844 L 315.335938 324.339844 M 321.335938 321.339844 L 324.335938 321.339844 L 324.335938 324.339844 L 321.335938 324.339844 M 327.335938 321.339844 L 330.335938 321.339844 L 330.335938 324.339844 L 327.335938 324.339844 M 333.335938 321.339844 L 336.335938 321.339844 L 336.335938 324.339844 L 333.335938 324.339844 M 339.335938 321.339844 L 342.335938 321.339844 L 342.335938 324.339844 L 339.335938 324.339844 M 345.335938 321.339844 L 348.335938 321.339844 L 348.335938 324.339844 L 345.335938 324.339844 M 351.335938 321.339844 L 354.335938 321.339844 L 354.335938 324.339844 L 351.335938 324.339844 M 357.335938 321.339844 L 360.335938 321.339844 L 360.335938 324.339844 L 357.335938 324.339844 M 363.335938 321.339844 L 366.335938 321.339844 L 366.335938 324.339844 L 363.335938 324.339844 M 369.335938 321.339844 L 372.335938 321.339844 L 372.335938 324.339844 L 369.335938 324.339844 M 375.335938 321.339844 L 378.335938 321.339844 L 378.335938 324.339844 L 375.335938 324.339844 M 381.335938 321.339844 L 384.335938 321.339844 L 384.335938 324.339844 L 381.335938 324.339844 M 387.335938 321.339844 L 390.335938 321.339844 L 390.335938 324.339844 L 387.335938 324.339844 M 393.335938 321.339844 L 396.335938 321.339844 L 396.335938 324.339844 L 393.335938 324.339844 M 399.335938 321.339844 L 402.335938 321.339844 L 402.335938 324.339844 L 399.335938 324.339844 M 405.335938 321.339844 L 408.335938 321.339844 L 408.335938 324.339844 L 405.335938 324.339844 M 411.335938 321.339844 L 414.335938 321.339844 L 414.335938 324.339844 L 411.335938 324.339844 M 417.335938 321.339844 L 420.335938 321.339844 L 420.335938 324.339844 L 417.335938 324.339844 M 423.335938 321.339844 L 426.335938 321.339844 L 426.335938 324.339844 L 423.335938 324.339844 M 429.335938 321.339844 L 432.335938 321.339844 L 432.335938 324.339844 L 429.335938 324.339844 M 435.335938 321.339844 L 438.335938 321.339844 L 438.335938 324.339844 L 435.335938 324.339844 M 441.335938 321.339844 L 444.335938 321.339844 L 444.335938 324.339844 L 441.335938 324.339844 M 447.335938 321.339844 L 450.335938 321.339844 L 450.335938 324.339844 L 447.335938 324.339844 M 453.335938 321.339844 L 456.335938 321.339844 L 456.335938 324.339844 L 453.335938 324.339844 M 459.335938 321.339844 L 462.335938 321.339844 L 462.335938 324.339844 L 459.335938 324.339844 M 465.335938 321.339844 L 468.335938 321.339844 L 468.335938 324.339844 L 465.335938 324.339844 M 471.335938 321.339844 L 474.335938 321.339844 L 474.335938 324.339844 L 471.335938 324.339844 M 477.335938 321.339844 L 480.335938 321.339844 L 480.335938 324.339844 L 477.335938 324.339844 M 483.335938 321.339844 L 486.335938 321.339844 L 486.335938 324.339844 L 483.335938 324.339844 " fill-opacity="1" fill-rule="nonzero"/><path fill="#ffffff" d="M 273.292969 451.609375 L 273.347656 454.609375 L 270.347656 454.664062 L 270.292969 451.664062 M 273.402344 457.609375 L 273.453125 460.609375 L 270.457031 460.660156 L 270.402344 457.664062 M 273.507812 463.609375 L 273.5625 466.605469 L 270.5625 466.660156 L 270.507812 463.660156 M 273.617188 469.605469 L 273.667969 472.605469 L 270.667969 472.660156 L 270.617188 469.660156 M 273.722656 475.605469 L 273.777344 478.605469 L 270.777344 478.660156 L 270.722656 475.660156 M 273.832031 481.605469 L 273.882812 484.605469 L 270.882812 484.65625 L 270.832031 481.660156 M 273.9375 487.605469 L 273.992188 490.601562 L 270.992188 490.65625 L 270.9375 487.65625 M 274.046875 493.601562 L 274.097656 496.601562 L 271.097656 496.65625 L 271.046875 493.65625 M 274.152344 499.601562 L 274.207031 502.601562 L 271.207031 502.65625 L 271.152344 499.65625 M 274.261719 505.601562 L 274.3125 508.601562 L 271.3125 508.652344 L 271.261719 505.65625 M 274.367188 511.601562 L 274.421875 514.601562 L 271.421875 514.652344 L 271.367188 511.652344 M 274.476562 517.597656 L 274.527344 520.597656 L 271.527344 520.652344 L 271.476562 517.652344 M 274.582031 523.597656 L 274.636719 526.597656 L 271.636719 526.652344 L 271.582031 523.652344 M 274.691406 529.597656 L 274.742188 532.597656 L 271.742188 532.652344 L 271.691406 529.652344 " fill-opacity="1" fill-rule="nonzero"/><path fill="#ffffff" d="M 262.832031 264.230469 L 262.832031 267.230469 L 259.832031 267.230469 L 259.832031 264.230469 M 262.832031 270.230469 L 262.832031 273.230469 L 259.832031 273.230469 L 259.832031 270.230469 M 262.832031 276.230469 L 262.832031 279.230469 L 259.832031 279.230469 L 259.832031 276.230469 M 262.832031 282.230469 L 262.832031 285.230469 L 259.832031 285.230469 L 259.832031 282.230469 M 262.832031 288.230469 L 262.832031 291.230469 L 259.832031 291.230469 L 259.832031 288.230469 M 262.832031 294.230469 L 262.832031 297.230469 L 259.832031 297.230469 L 259.832031 294.230469 M 262.832031 300.230469 L 262.832031 303.230469 L 259.832031 303.230469 L 259.832031 300.230469 M 262.832031 306.230469 L 262.832031 309.230469 L 259.832031 309.230469 L 259.832031 306.230469 M 262.832031 312.230469 L 262.832031 315.230469 L 259.832031 315.230469 L 259.832031 312.230469 M 262.832031 318.230469 L 262.832031 321.230469 L 259.832031 321.230469 L 259.832031 318.230469 " fill-opacity="1" fill-rule="nonzero"/></svg>