<svg xmlns="http://www.w3.org/2000/svg" xmlns:xlink="http://www.w3.org/1999/xlink" width="500" zoomAndPan="magnify" viewBox="0 0 375 374.999991" height="500" preserveAspectRatio="xMidYMid meet" version="1.0"><defs><g/><clipPath id="4de11c0ccb"><path d="M 32.542969 61.402344 L 342.292969 61.402344 L 342.292969 313.402344 L 32.542969 313.402344 Z M 32.542969 61.402344 " clip-rule="nonzero"/></clipPath></defs><g clip-path="url(#4de11c0ccb)"><path fill="#014ac6" d="M 339.25 213.285156 L 291.132812 185.507812 L 291.132812 161.417969 C 291.132812 142.867188 276.007812 127.679688 257.394531 127.679688 L 241.613281 127.679688 L 241.613281 92.371094 C 241.613281 89.113281 239.070312 86.40625 235.84375 86.179688 C 205.234375 84.125 196.660156 67.664062 196.300781 66.914062 C 194.703125 63.585938 191.28125 61.402344 187.53125 61.402344 C 183.816406 61.402344 180.359375 63.554688 178.761719 66.914062 C 178.40625 67.628906 169.894531 84.15625 139.1875 86.210938 C 135.929688 86.441406 133.417969 89.144531 133.417969 92.40625 L 133.417969 127.710938 L 117.640625 127.710938 C 99.027344 127.710938 83.898438 142.902344 83.898438 161.449219 L 83.898438 185.542969 L 35.75 213.285156 C 33.828125 214.390625 32.652344 216.445312 32.652344 218.664062 L 32.652344 277.828125 C 32.652344 280.046875 33.828125 282.101562 35.75 283.207031 L 86.964844 312.777344 C 87.910156 313.332031 88.984375 313.589844 90.0625 313.589844 C 91.136719 313.589844 92.210938 313.332031 93.15625 312.777344 L 144.402344 283.207031 C 146.328125 282.101562 147.5 280.046875 147.5 277.828125 L 147.5 255.921875 L 227.464844 255.921875 L 227.464844 277.828125 C 227.464844 280.046875 228.640625 282.101562 230.5625 283.207031 L 281.808594 312.777344 C 282.753906 313.332031 283.832031 313.589844 284.90625 313.589844 C 285.980469 313.589844 287.058594 313.332031 288.003906 312.777344 L 339.25 283.207031 C 341.171875 282.101562 342.347656 280.046875 342.347656 277.828125 L 342.347656 218.664062 C 342.347656 216.445312 341.171875 214.390625 339.25 213.285156 Z M 284.90625 241.089844 L 246.082031 218.695312 L 284.90625 196.300781 L 323.730469 218.695312 Z M 145.804688 98.011719 C 171.039062 94.785156 182.902344 82.660156 187.53125 76.171875 C 192.226562 82.558594 204.222656 94.753906 229.195312 97.980469 L 229.195312 127.839844 C 229.195312 158.058594 194.605469 178.664062 187.5 182.609375 C 180.359375 178.664062 145.804688 158.058594 145.804688 127.839844 Z M 90.09375 241.089844 L 51.269531 218.664062 L 90.09375 196.265625 L 128.917969 218.664062 Z M 45.074219 229.421875 L 83.898438 251.816406 L 83.898438 296.640625 L 45.074219 274.242188 Z M 96.289062 296.640625 L 96.289062 251.816406 L 135.113281 229.386719 L 135.113281 274.210938 Z M 147.5 243.503906 L 147.5 218.664062 C 147.5 216.445312 146.328125 214.390625 144.402344 213.285156 L 96.253906 185.476562 L 96.253906 161.417969 C 96.253906 149.683594 105.839844 140.097656 117.574219 140.097656 L 134.917969 140.097656 C 142.96875 173.285156 181.207031 193.398438 183 194.3125 C 184.371094 195.027344 185.902344 195.386719 187.433594 195.386719 C 188.96875 195.386719 190.5 195.027344 191.867188 194.3125 C 193.695312 193.367188 231.898438 173.285156 239.953125 140.097656 L 257.292969 140.097656 C 269.097656 140.097656 278.613281 149.683594 278.613281 161.417969 L 278.613281 185.507812 L 230.5 213.285156 C 228.574219 214.390625 227.402344 216.445312 227.402344 218.664062 L 227.402344 243.503906 Z M 239.886719 229.421875 L 278.710938 251.847656 L 278.710938 296.671875 L 239.886719 274.277344 Z M 291.101562 296.640625 L 291.101562 251.816406 L 329.925781 229.386719 L 329.925781 274.210938 Z M 291.101562 296.640625 " fill-opacity="1" fill-rule="nonzero"/></g><path fill="#014ac6" d="M 180.554688 149.03125 C 182.152344 149.03125 183.75 148.410156 184.957031 147.203125 L 212.535156 119.625 C 214.949219 117.214844 214.949219 113.269531 212.535156 110.855469 C 210.125 108.445312 206.179688 108.445312 203.765625 110.855469 L 180.554688 134.035156 L 171.234375 124.710938 C 168.820312 122.300781 164.875 122.300781 162.464844 124.710938 C 160.050781 127.125 160.050781 131.066406 162.464844 133.480469 L 176.15625 147.171875 C 177.394531 148.410156 178.992188 149.03125 180.554688 149.03125 Z M 180.554688 149.03125 " fill-opacity="1" fill-rule="nonzero"/><g fill="#014ac6" fill-opacity="1"><g transform="translate(184.853121, 135.074354)"><g><path d="M 0.09375 0 C 0.0820312 0 0.0703125 -0.00390625 0.0625 -0.015625 C 0.0507812 -0.0234375 0.046875 -0.03125 0.046875 -0.03125 C 0.046875 -0.0390625 0.0507812 -0.0507812 0.0625 -0.0625 L 0.578125 -0.71875 L 0.09375 -0.71875 C 0.0820312 -0.71875 0.0703125 -0.71875 0.0625 -0.71875 C 0.0507812 -0.726562 0.046875 -0.738281 0.046875 -0.75 C 0.046875 -0.757812 0.0507812 -0.765625 0.0625 -0.765625 C 0.0703125 -0.773438 0.0820312 -0.78125 0.09375 -0.78125 L 0.640625 -0.78125 C 0.648438 -0.78125 0.65625 -0.773438 0.65625 -0.765625 C 0.664062 -0.753906 0.671875 -0.742188 0.671875 -0.734375 C 0.671875 -0.734375 0.671875 -0.726562 0.671875 -0.71875 L 0.140625 -0.0625 L 0.640625 -0.0625 C 0.648438 -0.0625 0.65625 -0.0546875 0.65625 -0.046875 C 0.664062 -0.046875 0.671875 -0.0390625 0.671875 -0.03125 C 0.671875 -0.0195312 0.664062 -0.0078125 0.65625 0 C 0.65625 0 0.648438 0 0.640625 0 Z M 0.09375 0 "/></g></g></g><g fill="#014ac6" fill-opacity="1"><g transform="translate(185.577125, 135.074354)"><g><path d="M 0.40625 0.015625 C 0.351562 0.015625 0.300781 0.00390625 0.25 -0.015625 C 0.195312 -0.0351562 0.15625 -0.0664062 0.125 -0.109375 C 0.101562 -0.148438 0.09375 -0.203125 0.09375 -0.265625 L 0.09375 -0.734375 C 0.09375 -0.753906 0.0976562 -0.765625 0.109375 -0.765625 C 0.117188 -0.773438 0.128906 -0.78125 0.140625 -0.78125 C 0.148438 -0.78125 0.15625 -0.773438 0.15625 -0.765625 C 0.164062 -0.765625 0.171875 -0.753906 0.171875 -0.734375 L 0.171875 -0.265625 C 0.171875 -0.222656 0.179688 -0.1875 0.203125 -0.15625 C 0.222656 -0.125 0.25 -0.0976562 0.28125 -0.078125 C 0.320312 -0.0664062 0.363281 -0.0625 0.40625 -0.0625 C 0.457031 -0.0625 0.5 -0.0664062 0.53125 -0.078125 C 0.5625 -0.0976562 0.585938 -0.125 0.609375 -0.15625 C 0.628906 -0.1875 0.640625 -0.222656 0.640625 -0.265625 L 0.640625 -0.734375 C 0.640625 -0.753906 0.640625 -0.765625 0.640625 -0.765625 C 0.648438 -0.773438 0.664062 -0.78125 0.6875 -0.78125 C 0.695312 -0.78125 0.703125 -0.773438 0.703125 -0.765625 C 0.710938 -0.765625 0.71875 -0.753906 0.71875 -0.734375 L 0.71875 -0.265625 C 0.71875 -0.203125 0.703125 -0.148438 0.671875 -0.109375 C 0.648438 -0.0664062 0.613281 -0.0351562 0.5625 -0.015625 C 0.519531 0.00390625 0.46875 0.015625 0.40625 0.015625 Z M 0.40625 0.015625 "/></g></g></g><g fill="#014ac6" fill-opacity="1"><g transform="translate(186.396128, 135.074354)"><g><path d="M 0.140625 0 C 0.128906 0 0.117188 0 0.109375 0 C 0.0976562 -0.0078125 0.09375 -0.0195312 0.09375 -0.03125 L 0.09375 -0.734375 C 0.09375 -0.753906 0.0976562 -0.765625 0.109375 -0.765625 C 0.117188 -0.773438 0.128906 -0.78125 0.140625 -0.78125 C 0.148438 -0.78125 0.160156 -0.773438 0.171875 -0.765625 L 0.640625 -0.140625 L 0.640625 -0.734375 C 0.640625 -0.753906 0.644531 -0.765625 0.65625 -0.765625 C 0.664062 -0.773438 0.675781 -0.78125 0.6875 -0.78125 C 0.695312 -0.78125 0.703125 -0.773438 0.703125 -0.765625 C 0.710938 -0.765625 0.71875 -0.753906 0.71875 -0.734375 L 0.71875 -0.03125 C 0.71875 -0.0195312 0.710938 -0.0078125 0.703125 0 C 0.703125 0 0.695312 0 0.6875 0 C 0.675781 0 0.664062 -0.00390625 0.65625 -0.015625 L 0.171875 -0.640625 L 0.171875 -0.03125 C 0.171875 -0.0195312 0.164062 -0.0078125 0.15625 0 C 0.15625 0 0.148438 0 0.140625 0 Z M 0.140625 0 "/></g></g></g><g fill="#014ac6" fill-opacity="1"><g transform="translate(187.221132, 135.074354)"><g><path d="M 0.140625 0 C 0.128906 0 0.117188 0 0.109375 0 C 0.0976562 -0.0078125 0.09375 -0.0195312 0.09375 -0.03125 L 0.09375 -0.734375 C 0.09375 -0.753906 0.0976562 -0.765625 0.109375 -0.765625 C 0.117188 -0.773438 0.128906 -0.78125 0.140625 -0.78125 C 0.148438 -0.78125 0.15625 -0.773438 0.15625 -0.765625 C 0.164062 -0.765625 0.171875 -0.753906 0.171875 -0.734375 L 0.171875 -0.03125 C 0.171875 -0.0195312 0.164062 -0.0078125 0.15625 0 C 0.15625 0 0.148438 0 0.140625 0 Z M 0.140625 0 "/></g></g></g></svg>